<svg width="62" height="36" viewBox="0 0 62 36" fill="none" xmlns="http://www.w3.org/2000/svg">
<path d="M15.4264 11.8528V13.9756C15.132 14.1231 14.7345 14.2557 13.9249 14.2557C12.5854 14.2557 11.452 13.4744 11.452 12.0739V9.00759C11.452 7.84297 10.9074 7.16483 9.95059 7.16483C8.9938 7.16483 8.34613 7.90193 8.34613 9.00759V14.0788H5.77016V9.00759C5.77016 7.84297 5.24025 7.16483 4.20987 7.16483C3.17948 7.16483 2.56125 7.90193 2.56125 9.00759V14.0788H0V4.96827H2.44349V5.79383C2.81148 5.26311 3.59163 4.76188 4.84282 4.76188C6.18232 4.76188 7.22743 5.27786 7.81622 6.23609C8.30197 5.41053 9.22932 4.76188 10.5835 4.76188C12.6738 4.76188 14.0427 6.11815 14.0427 8.40316V11.2484C14.0427 11.7201 14.3224 12.015 14.7787 12.015C15.0584 12.015 15.235 11.9412 15.4264 11.8381V11.8528Z" fill="#303030"/>
<path d="M18.8853 10.3785C18.9736 11.5284 19.8862 12.2213 21.3435 12.2213C22.4769 12.2213 23.3012 11.8969 23.993 11.3957V13.7102C23.2129 14.0493 22.4916 14.2999 21.211 14.2999C18.3995 14.2999 16.1621 12.6193 16.1621 9.53823C16.1621 6.45714 17.8402 4.77655 20.475 4.77655C23.1099 4.77655 24.5818 6.57508 24.5818 9.12545V10.3785H18.9H18.8853ZM18.8853 8.60948V8.71267H21.9617V8.56525C21.9617 7.5628 21.5348 6.7225 20.4603 6.7225C19.3857 6.7225 18.8853 7.48909 18.8853 8.59474V8.60948Z" fill="#303030"/>
<path d="M28.8363 11.2629C28.8363 11.7346 29.1307 12.0295 29.5723 12.0295C29.852 12.0295 30.0286 11.9558 30.22 11.8526V13.9754C29.9256 14.1229 29.5281 14.2555 28.7185 14.2555C27.3938 14.2555 26.2456 13.4742 26.2456 12.0737V0H28.8216V11.2629H28.8363Z" fill="#303030"/>
<path d="M34.0321 11.2629C34.0321 11.7346 34.3265 12.0295 34.7681 12.0295C35.0478 12.0295 35.2244 11.9558 35.4158 11.8526V13.9754C35.1214 14.1229 34.7239 14.2555 33.9143 14.2555C32.5896 14.2555 31.4414 13.4742 31.4414 12.0737V0H34.0174V11.2629H34.0321Z" fill="#303030"/>
<path d="M45.8669 9.52356C45.8669 12.3835 43.8062 14.2852 41.0094 14.2852C38.2126 14.2852 36.1519 12.3983 36.1519 9.52356C36.1519 6.64886 38.2126 4.76188 41.0094 4.76188C43.8062 4.76188 45.8669 6.63412 45.8669 9.52356ZM38.772 9.52356C38.772 11.1157 39.6846 12.0592 41.0094 12.0592C42.3342 12.0592 43.2468 11.1157 43.2468 9.52356C43.2468 7.93142 42.3342 6.97319 41.0094 6.97319C39.6846 6.97319 38.772 7.91668 38.772 9.52356Z" fill="#303030"/>
<path d="M61.4847 9.42014C61.4847 12.8255 59.7183 14.285 57.3779 14.285C56.0384 14.285 54.9638 13.7543 54.3014 12.8698C53.6832 13.6658 52.697 14.285 51.2986 14.285C48.8109 14.285 47.5745 12.7961 47.5745 10.4079V8.07862C47.5745 7.40049 47.1182 7.10565 46.4116 7.12039V4.90909C48.914 4.74692 50.1505 5.6167 50.1505 7.56265V9.9656C50.1505 11.2187 50.592 11.8821 51.6224 11.8821C52.5792 11.8821 53.1239 11.2482 53.1239 9.9656V4.96805H55.6998V9.90663C55.6998 11.2187 56.3328 11.8821 57.3926 11.8821C58.3347 11.8821 59.1295 11.2334 59.1295 9.5823C59.1295 8.90417 59.0412 8.35872 58.8793 7.91646C58.7174 7.97542 58.5407 8.00491 58.3641 8.00491C57.4662 8.00491 56.7744 7.29729 56.7744 6.39803C56.7744 5.49877 57.4662 4.80589 58.3641 4.80589C60.0716 4.80589 61.4847 6.75184 61.4847 9.42014Z" fill="#303030"/>
<path d="M31.1616 17.484V19.7101C30.7347 19.5037 30.4256 19.4152 29.8515 19.4152C28.9683 19.4152 28.3059 19.9312 28.3059 21.0221V32.0344C28.3059 34.5405 26.5543 36 24.1255 36V33.7297C25.2442 33.7297 25.7299 33.1695 25.7299 32.0491V20.9631C25.7299 18.457 27.3786 17.1597 29.4541 17.1597C30.1753 17.1597 30.6022 17.2482 31.1616 17.484ZM34.5471 28.5405C34.5471 29.0123 34.8268 29.3071 35.2831 29.3071C35.5628 29.3071 35.7394 29.2334 35.9308 29.1302V31.2531C35.6364 31.4005 35.2389 31.5332 34.4294 31.5332C33.1046 31.5332 31.9564 30.7518 31.9564 29.3514V17.2776H34.5324V28.5405H34.5471Z" fill="#303030"/>
<path d="M46.3821 26.8011C46.3821 29.6611 44.3213 31.5628 41.5245 31.5628C38.7278 31.5628 36.667 29.6758 36.667 26.8011C36.667 23.9264 38.7278 22.0394 41.5245 22.0394C44.3213 22.0394 46.3821 23.9117 46.3821 26.8011ZM39.2871 26.8011C39.2871 28.3932 40.1997 29.3367 41.5245 29.3367C42.8493 29.3367 43.7619 28.3932 43.7619 26.8011C43.7619 25.209 42.8493 24.2507 41.5245 24.2507C40.1997 24.2507 39.2871 25.1942 39.2871 26.8011Z" fill="#303030"/>
<path d="M61.9998 26.6977C61.9998 30.1031 60.2335 31.5626 57.893 31.5626C56.5535 31.5626 55.479 31.0318 54.8166 30.1473C54.1983 30.9434 53.2121 31.5626 51.8137 31.5626C49.3261 31.5626 48.0896 30.0736 48.0896 27.6854V25.3562C48.0896 24.678 47.6333 24.3832 46.9268 24.3979V22.1866C49.4291 22.0245 50.6656 22.8942 50.6656 24.8402V27.2431C50.6656 28.4962 51.1072 29.1596 52.1376 29.1596C53.0944 29.1596 53.639 28.5257 53.639 27.2431V22.2456H56.215V27.1842C56.215 28.4962 56.8479 29.1596 57.9077 29.1596C58.8498 29.1596 59.6447 28.511 59.6447 26.8598C59.6447 26.1817 59.5564 25.6363 59.3944 25.194C59.2325 25.253 59.0559 25.2825 58.8792 25.2825C57.9813 25.2825 57.2895 24.5748 57.2895 23.6756C57.2895 22.7763 57.9813 22.0834 58.8792 22.0834C60.5867 22.0834 61.9998 24.0294 61.9998 26.6977Z" fill="#303030"/>
<path d="M29.2485 24.0736C28.8217 24.5012 28.2181 24.7518 27.6735 24.7076C27.0847 24.7076 26.5254 24.4569 26.0985 23.9852C25.2889 23.1007 24.1702 22.6142 22.9779 22.5994C21.7856 22.5405 20.6522 23.0712 19.8279 23.9262L19.6659 24.0884C19.2685 24.5159 18.7239 24.7518 18.1351 24.7665C17.561 24.7665 17.0017 24.5601 16.5895 24.1474L16.089 23.6609C14.3962 22.0245 11.6731 22.054 10.0245 23.7346L9.73007 24.0294C9.30319 24.4569 8.788 24.6338 8.15505 24.6781C7.55153 24.6781 7.0069 24.4275 6.59475 23.9852C5.78516 23.1154 4.63701 22.6142 3.45943 22.6142C2.31128 22.6142 1.2073 23.0859 0.397709 23.9115L0.32411 23.9852C0.162192 24.1768 0.0444336 24.4127 0.0444336 24.6928C0.0444336 25.2825 0.530187 25.769 1.11898 25.769C1.41338 25.769 1.69305 25.6363 1.88441 25.4447C2.29656 25.0171 2.85592 24.7665 3.45943 24.7665C4.06294 24.7665 4.63701 25.0171 5.04917 25.4594C5.85876 26.3292 6.94802 26.8157 8.14033 26.8304C9.28847 26.8451 10.4366 26.3881 11.2756 25.5478L11.57 25.253C12.4091 24.398 13.778 24.398 14.6318 25.2235L15.1322 25.71C15.9418 26.5061 17.0016 26.9336 18.1351 26.9336C18.1645 26.9336 18.194 26.9336 18.2087 26.9336C19.3715 26.9189 20.4461 26.4471 21.241 25.6068L21.4029 25.4447C21.815 25.0024 22.4038 24.7813 22.9926 24.7665C23.5961 24.7665 24.1555 25.0171 24.5823 25.4889C25.3919 26.3587 26.4812 26.8451 27.6588 26.8599C28.8217 26.8599 29.9551 26.4324 30.7794 25.5921L29.2632 24.0736H29.2485Z" fill="#6A61F1"/>
</svg>
