<svg width="24" height="24" viewBox="0 0 24 24" fill="none" xmlns="http://www.w3.org/2000/svg">
<g clip-path="url(#clip0_1_587)">
<path d="M23.873 0.424211C23.8621 0.34964 23.8276 0.280524 23.7745 0.227028C23.7214 0.173531 23.6526 0.138478 23.5781 0.127023C21.4781 -0.180008 19.215 0.0717108 17.033 0.855929C14.7905 1.66124 12.6736 3.01968 10.9078 4.78405C10.7075 4.98468 10.5127 5.18952 10.3233 5.39859L7.57968 5.21577C7.38685 5.20314 7.19354 5.23177 7.01264 5.29975C6.83174 5.36772 6.66742 5.47349 6.53062 5.60999L4.72218 7.41843C4.67979 7.4608 4.64893 7.5133 4.63254 7.57095C4.61615 7.6286 4.61477 7.68948 4.62853 7.74782C4.64229 7.80615 4.67074 7.86 4.71117 7.90424C4.7516 7.94849 4.80267 7.98166 4.85953 8.00062L7.82062 8.9878C7.4264 9.74646 7.09497 10.5361 6.82968 11.3489C6.80961 11.4106 6.80699 11.4766 6.82213 11.5396C6.83727 11.6027 6.86958 11.6603 6.91547 11.7061L7.58156 12.3722L6.05156 13.8998C6.00186 13.9495 5.96819 14.013 5.9549 14.082C5.94162 14.151 5.94933 14.2224 5.97703 14.287C6.694 15.9675 8.03249 17.306 9.71297 18.023C9.77754 18.0508 9.84898 18.0586 9.91803 18.0453C9.98707 18.032 10.0505 17.9982 10.1002 17.9484L11.6278 16.4208L12.2939 17.0869C12.3599 17.1529 12.4494 17.19 12.5428 17.19C12.5796 17.19 12.6161 17.1841 12.6511 17.1726C13.4639 16.9074 14.2536 16.576 15.0122 16.1817L15.9994 19.1428C16.0183 19.1997 16.0514 19.2508 16.0956 19.2912C16.1398 19.3317 16.1937 19.3601 16.252 19.3739C16.2786 19.38 16.3058 19.3832 16.3331 19.3833C16.4263 19.3831 16.5157 19.3461 16.5816 19.2801L18.39 17.4717C18.5265 17.3349 18.6323 17.1706 18.7002 16.9897C18.7682 16.8088 18.7968 16.6155 18.7842 16.4226L18.6014 13.6791C18.8105 13.4897 19.0153 13.2948 19.2159 13.0945C20.9803 11.3301 22.3387 9.21187 23.1441 6.96937C23.9283 4.78734 24.18 2.52421 23.873 0.424211ZM5.61937 7.51359L7.02562 6.10734C7.09158 6.04195 7.17074 5.99141 7.2578 5.95907C7.34486 5.92674 7.43782 5.91336 7.53047 5.91984L9.74578 6.06749C9.15511 6.78824 8.62487 7.55647 8.16047 8.36437L5.61937 7.51359ZM9.77437 17.2795C8.43229 16.6476 7.3524 15.5677 6.72047 14.2256L8.07656 12.8695L11.1305 15.9234L9.77437 17.2795ZM12.6375 16.4358L7.56375 11.3625C7.71625 10.9162 7.89109 10.4758 8.08828 10.0411L13.9589 15.9117C13.5248 16.1083 13.0844 16.2831 12.6375 16.4362V16.4358ZM18.0825 16.4691C18.0887 16.5619 18.0749 16.6549 18.0422 16.742C18.0094 16.8291 17.9585 16.9081 17.8927 16.9739L16.4864 18.3801L15.6394 15.8391C16.4473 15.3746 17.2155 14.8444 17.9362 14.2537L18.0825 16.4691ZM18.7186 12.5967C17.5193 13.8002 16.1398 14.8093 14.6297 15.5878L8.41172 9.3703C9.1902 7.86018 10.1993 6.48065 11.4028 5.2814C13.1597 3.52405 15.2142 2.2303 17.363 1.47374C18.668 1.74093 19.8342 2.3578 20.738 3.26202C21.6417 4.16624 22.2591 5.33202 22.5262 6.63702C21.7697 8.78577 20.4759 10.8403 18.7186 12.5972V12.5967ZM22.9017 5.39062C22.5465 4.40322 21.9775 3.50647 21.2355 2.76446C20.4935 2.02245 19.5968 1.45351 18.6094 1.09827C20.1398 0.71343 21.6975 0.601398 23.213 0.787492C23.3986 2.30296 23.2866 3.86062 22.9017 5.39062Z" fill="currentColor"/>
<path d="M15.4097 4.48877C14.5985 4.48877 13.8055 4.72932 13.131 5.18001C12.4565 5.63069 11.9308 6.27127 11.6203 7.02073C11.3099 7.77019 11.2287 8.59488 11.3869 9.39051C11.5452 10.1861 11.9358 10.917 12.5094 11.4906C13.083 12.0642 13.8139 12.4548 14.6095 12.6131C15.4051 12.7713 16.2298 12.6901 16.9793 12.3797C17.7287 12.0692 18.3693 11.5435 18.82 10.869C19.2707 10.1945 19.5112 9.40154 19.5112 8.59033C19.51 7.50291 19.0775 6.46038 18.3085 5.69146C17.5396 4.92254 16.4971 4.49001 15.4097 4.48877ZM15.4097 11.9888C14.7375 11.9888 14.0805 11.7895 13.5216 11.416C12.9627 11.0426 12.5271 10.5118 12.2699 9.89086C12.0127 9.26987 11.9454 8.58656 12.0765 7.92733C12.2077 7.2681 12.5313 6.66255 13.0066 6.18727C13.4819 5.71199 14.0874 5.38832 14.7467 5.25719C15.4059 5.12607 16.0892 5.19337 16.7102 5.45059C17.3312 5.7078 17.8619 6.14339 18.2354 6.70226C18.6088 7.26113 18.8081 7.91818 18.8081 8.59033C18.8071 9.49135 18.4487 10.3552 17.8116 10.9923C17.1745 11.6294 16.3107 11.9878 15.4097 11.9888Z" fill="currentColor"/>
<path d="M15.4097 5.89502C14.8766 5.89502 14.3555 6.0531 13.9122 6.34926C13.469 6.64543 13.1235 7.06638 12.9195 7.55888C12.7155 8.05138 12.6621 8.59332 12.7661 9.11616C12.8701 9.639 13.1268 10.1193 13.5038 10.4962C13.8807 10.8732 14.361 11.1299 14.8838 11.2339C15.4067 11.3379 15.9486 11.2845 16.4411 11.0805C16.9336 10.8765 17.3546 10.531 17.6507 10.0878C17.9469 9.64453 18.105 9.12341 18.105 8.59033C18.1041 7.87576 17.8199 7.1907 17.3146 6.68542C16.8093 6.18014 16.1242 5.89589 15.4097 5.89502ZM15.4097 10.5825C15.0157 10.5825 14.6305 10.4657 14.3029 10.2468C13.9753 10.0279 13.7199 9.71673 13.5691 9.35271C13.4183 8.98868 13.3789 8.58812 13.4558 8.20168C13.5326 7.81523 13.7224 7.46026 14.001 7.18164C14.2796 6.90303 14.6346 6.71329 15.021 6.63642C15.4075 6.55955 15.808 6.59901 16.172 6.74979C16.5361 6.90057 16.8472 7.15592 17.0661 7.48353C17.285 7.81115 17.4019 8.19631 17.4019 8.59033C17.4014 9.11854 17.1913 9.62497 16.8178 9.99847C16.4443 10.372 15.9379 10.582 15.4097 10.5825Z" fill="currentColor"/>
<path d="M8.43752 18.4599C7.77043 18.2212 7.16456 17.8375 6.66356 17.3365C6.16256 16.8355 5.77889 16.2296 5.54018 15.5625C5.50915 15.476 5.44542 15.4051 5.36268 15.365C5.27995 15.325 5.1848 15.319 5.09768 15.3483C2.93065 16.0767 1.75737 18.8072 1.70862 18.923C1.68105 18.9909 1.6754 19.0657 1.69245 19.137C1.7095 19.2083 1.7484 19.2725 1.80372 19.3206C1.85903 19.3686 1.928 19.3982 2.00096 19.4052C2.07392 19.4122 2.14724 19.3962 2.21065 19.3594C2.4019 19.2469 2.5594 19.2225 2.6794 19.2356C2.14268 20.0958 1.77331 21.6469 1.72643 21.8489C1.71309 21.9071 1.71473 21.9676 1.7312 22.0249C1.74768 22.0823 1.77844 22.1345 1.82061 22.1766C1.86278 22.2188 1.91498 22.2496 1.9723 22.266C2.02961 22.2825 2.09018 22.2841 2.14831 22.2708C2.34987 22.2239 3.90049 21.855 4.76065 21.3183C4.77331 21.4397 4.74987 21.5972 4.63784 21.7871C4.60042 21.8507 4.58402 21.9246 4.59095 21.9982C4.59789 22.0717 4.62782 22.1412 4.67649 22.1968C4.72516 22.2523 4.7901 22.2912 4.86209 22.3077C4.93408 22.3243 5.00945 22.3178 5.07752 22.2891C5.19331 22.2422 7.92377 21.0671 8.65221 18.9C8.68081 18.8131 8.67438 18.7185 8.63428 18.6363C8.59418 18.5541 8.52359 18.4908 8.43752 18.4599ZM5.46331 21.3056C5.44819 21.0141 5.32815 20.7379 5.12534 20.528C5.09184 20.4959 5.05232 20.4708 5.00907 20.4541C4.96582 20.4373 4.91969 20.4293 4.87333 20.4305C4.82697 20.4317 4.7813 20.442 4.73895 20.4609C4.69661 20.4798 4.65842 20.5069 4.62659 20.5407C4.32237 20.8636 3.35346 21.2147 2.55846 21.4397C2.78346 20.6428 3.13456 19.6758 3.45752 19.3716C3.49125 19.3398 3.51834 19.3016 3.53724 19.2592C3.55614 19.2169 3.56648 19.1712 3.56766 19.1248C3.56883 19.0785 3.56082 19.0324 3.5441 18.9891C3.52737 18.9459 3.50225 18.9063 3.47018 18.8728C3.26005 18.6697 2.98345 18.5497 2.69159 18.5349C3.11018 17.8008 3.90612 16.651 5.01096 16.1367C5.56508 17.4141 6.58406 18.4331 7.86143 18.9872C7.34956 20.0888 6.19924 20.8861 5.46518 21.3056H5.46331Z" fill="currentColor"/>
</g>
<defs>
<clipPath id="clip0_1_587">
<rect width="24" height="24" fill="white"/>
</clipPath>
</defs>
</svg>
