<svg width="24" height="24" viewBox="0 0 24 24" fill="none" xmlns="http://www.w3.org/2000/svg">
<g clip-path="url(#clip0_1_310)">
<mask id="mask0_1_310" style="mask-type:luminance" maskUnits="userSpaceOnUse" x="0" y="0" width="24" height="24">
<path d="M24 0H0V24H24V0Z" fill="white"/>
</mask>
<g mask="url(#mask0_1_310)">
<mask id="mask1_1_310" style="mask-type:luminance" maskUnits="userSpaceOnUse" x="0" y="0" width="24" height="24">
<path d="M0 1.90735e-06H24V24H0V1.90735e-06Z" fill="white"/>
</mask>
<g mask="url(#mask1_1_310)">
<path d="M16.2933 12.8478L15.2177 11.8407C15.2546 11.5661 15.2738 11.2853 15.2738 11.0001C15.2738 10.7152 15.2546 10.4344 15.2177 10.1594L16.8876 8.59616C17.2028 8.30108 17.2731 7.82765 17.0572 7.45368L16.0817 5.76435C15.8658 5.39038 15.4206 5.21455 15.0074 5.34008L12.8155 6.00599C12.3735 5.66423 11.8853 5.3803 11.3624 5.16444L11.1947 4.44379L10.8439 2.93619C10.7459 2.51563 10.3711 2.21793 9.93922 2.21793H7.98833C7.55647 2.21793 7.18161 2.51563 7.08373 2.93619L6.56511 5.16444C6.04222 5.3803 5.55402 5.66423 5.11212 6.00599L2.92016 5.34008C2.50695 5.21455 2.06178 5.39038 1.84583 5.76435L0.870406 7.45368C0.6545 7.82765 0.724766 8.30108 1.04 8.59616L2.70988 10.1594C2.67294 10.4344 2.65381 10.7152 2.65381 11.0001C2.65381 11.2853 2.67294 11.5661 2.70988 11.8407L1.03991 13.4043C0.724719 13.6994 0.6545 14.1728 0.870406 14.5468L1.84587 16.2359C2.06178 16.6098 2.50691 16.7856 2.92002 16.6601L5.11212 15.9945C5.55402 16.3363 6.04222 16.6202 6.56511 16.8356L7.08373 19.0647C7.18166 19.4853 7.55652 19.783 7.98838 19.783H9.93917C10.371 19.783 10.7459 19.4853 10.8438 19.0647L11.3624 16.8356C11.8853 16.6202 12.3735 16.3363 12.8155 15.9945L14.3495 16.4605M8.96375 13.6724C7.4878 13.6724 6.2915 12.4761 6.2915 11.0001C6.2915 9.52419 7.4878 8.3279 8.96375 8.3279C10.4397 8.3279 11.636 9.52419 11.636 11.0001C11.636 12.4761 10.4397 13.6724 8.96375 13.6724Z" stroke="currentColor" stroke-miterlimit="10" stroke-linecap="round" stroke-linejoin="round"/>
<path d="M19.5 17.5C19.2948 17.5913 19.1608 17.8814 18.2473 17.8814C17.3339 17.8814 16.5935 17.1411 16.5935 16.2276C16.5935 15.3142 17.3339 14.5738 18.2473 14.5738C19.1608 14.5738 19.9012 15.3142 19.9012 16.2276C19.9012 16.4263 19.9012 17.0992 19.5 17.5ZM22.1525 16.2276C22.1525 16.0512 22.1405 15.8774 22.1178 15.7073L23.183 14.7102C23.3595 14.5449 23.3988 14.2798 23.2779 14.0704L22.6308 12.9497C22.5099 12.7403 22.2607 12.6419 22.0293 12.7121L20.631 13.1367C20.3577 12.9252 20.0555 12.7495 19.7318 12.616L19.401 11.1947C19.3462 10.9592 19.1362 10.7925 18.8944 10.7925H17.6002C17.3584 10.7925 17.1485 10.9592 17.0937 11.1947L16.7629 12.616C16.4391 12.7495 16.137 12.9252 15.8636 13.1367L14.4653 12.7121C14.234 12.6419 13.9847 12.7403 13.8638 12.9497L13.2167 14.0704C13.0958 14.2798 13.1352 14.5449 13.3117 14.7102L14.3769 15.7073C14.3542 15.8774 14.3422 16.0512 14.3422 16.2276C14.3422 16.404 14.3542 16.5779 14.3769 16.7479L13.3117 17.7451C13.1352 17.9103 13.0958 18.1754 13.2167 18.3848L13.8638 19.5055C13.9847 19.7149 14.234 19.8134 14.4653 19.7431L15.8636 19.3185C16.137 19.53 16.4391 19.7057 16.7629 19.8392L17.0937 21.2609C17.1485 21.4964 17.3584 21.6631 17.6002 21.6631H18.8944C19.1362 21.6631 19.3462 21.4964 19.401 21.2609L19.7318 19.8392C20.0555 19.7057 20.3577 19.53 20.631 19.3185L22.0293 19.7431C22.2607 19.8134 22.5099 19.7149 22.6308 19.5055L23.2779 18.3848C23.3988 18.1754 23.3595 17.9103 23.183 17.7451L22.1178 16.7479C22.1405 16.5779 22.1525 16.404 22.1525 16.2276Z" stroke="currentColor" stroke-miterlimit="10" stroke-linecap="round" stroke-linejoin="round"/>
</g>
</g>
</g>
<defs>
<clipPath id="clip0_1_310">
<rect width="24" height="24" fill="white"/>
</clipPath>
</defs>
</svg>
