<svg width="27" height="27" viewBox="0 0 27 27" fill="none" xmlns="http://www.w3.org/2000/svg">
<path d="M10.8638 0.649902C13.3854 0.148319 15.9992 0.40534 18.3745 1.38916C20.75 2.3731 22.781 4.03941 24.2095 6.17725C25.6379 8.31507 26.3999 10.8288 26.3999 13.3999C26.3959 16.8465 25.0255 20.1513 22.5884 22.5884C20.1513 25.0255 16.8465 26.3959 13.3999 26.3999C10.8288 26.3999 8.31507 25.6379 6.17725 24.2095C4.03941 22.781 2.3731 20.75 1.38916 18.3745C0.40534 15.9992 0.148319 13.3854 0.649902 10.8638C1.15151 8.34202 2.38944 6.0256 4.20752 4.20752C6.0256 2.38944 8.34202 1.15151 10.8638 0.649902ZM13.3999 2.3999C11.2244 2.3999 9.09749 3.04477 7.28857 4.25342C5.4797 5.46207 4.06939 7.18006 3.23682 9.18994C2.40432 11.1998 2.18655 13.4118 2.61084 15.5454C3.03528 17.6792 4.08321 19.6398 5.62158 21.1782C7.15996 22.7166 9.1206 23.7645 11.2544 24.189C12.2984 24.3966 13.3611 24.4487 14.4097 24.3521C11.8567 24.1186 9.45288 23.0017 7.62549 21.1743C5.56341 19.1122 4.40334 16.3162 4.3999 13.3999C4.39997 11.0132 5.3481 8.72436 7.03564 7.03662C8.72347 5.34879 11.013 4.3999 13.3999 4.3999C15.7868 4.3999 18.0763 5.34879 19.7642 7.03662C21.4517 8.72436 22.3998 11.0132 22.3999 13.3999C22.3999 15.2564 21.6628 17.0374 20.3501 18.3501C19.0373 19.6629 17.2564 20.3999 15.3999 20.3999C13.5434 20.3999 11.7625 19.6629 10.4497 18.3501C9.13703 17.0374 8.3999 15.2564 8.3999 13.3999C8.39997 12.0739 8.92712 10.8024 9.86475 9.86475C10.8024 8.92714 12.0739 8.3999 13.3999 8.3999C14.7259 8.3999 15.9974 8.92714 16.9351 9.86475C17.8727 10.8024 18.3998 12.0739 18.3999 13.3999C18.3999 14.1955 18.0835 14.9584 17.521 15.521C16.9584 16.0836 16.1956 16.3999 15.3999 16.3999C14.6043 16.3999 13.8414 16.0836 13.2788 15.521C12.7163 14.9584 12.3999 14.1955 12.3999 13.3999C12.4 13.1348 12.5054 12.8804 12.6929 12.6929C12.8804 12.5054 13.1347 12.3999 13.3999 12.3999C13.6651 12.3999 13.9194 12.5054 14.1069 12.6929C14.271 12.857 14.3723 13.0724 14.395 13.3013L14.4048 13.4985C14.4274 13.7276 14.5287 13.9427 14.6929 14.1069C14.8804 14.2945 15.1347 14.3999 15.3999 14.3999C15.6651 14.3999 15.9194 14.2945 16.1069 14.1069C16.2944 13.9194 16.3999 13.6651 16.3999 13.3999C16.3998 12.6043 16.0835 11.8414 15.521 11.2788C14.9584 10.7163 14.1955 10.3999 13.3999 10.3999C12.6043 10.3999 11.8414 10.7163 11.2788 11.2788C10.7163 11.8414 10.4 12.6043 10.3999 13.3999C10.3999 14.726 10.9271 15.9984 11.8647 16.936C12.8024 17.8735 14.074 18.3999 15.3999 18.3999C16.7258 18.3999 17.9974 17.8735 18.9351 16.936C19.8727 15.9984 20.3999 14.726 20.3999 13.3999C20.3998 11.5436 19.6626 9.76335 18.3501 8.45068C17.0373 7.13793 15.2564 6.3999 13.3999 6.3999C11.5434 6.3999 9.76246 7.13793 8.44971 8.45068C7.13724 9.76335 6.39997 11.5436 6.3999 13.3999C6.3999 15.7868 7.34789 18.0763 9.03564 19.7642C10.7235 21.452 13.013 22.3999 15.3999 22.3999C17.7868 22.3999 20.0763 21.452 21.7642 19.7642C23.3465 18.1818 24.2789 16.0707 24.3892 13.8462L24.3999 13.3999C24.3965 10.4836 23.2365 7.68764 21.1743 5.62549C19.1122 3.56334 16.3162 2.40334 13.3999 2.3999Z" fill="currentColor"/>
<path d="M10.8638 0.649902L10.7857 0.257588V0.257588L10.8638 0.649902ZM18.3745 1.38916L18.5276 1.01961L18.5276 1.0196L18.3745 1.38916ZM24.2095 6.17725L24.5421 5.95502V5.95502L24.2095 6.17725ZM26.3999 13.3999L26.7999 13.4004V13.3999H26.3999ZM13.3999 26.3999V26.7999H13.4004L13.3999 26.3999ZM6.17725 24.2095L5.95502 24.5421H5.95502L6.17725 24.2095ZM1.38916 18.3745L1.0196 18.5276L1.01961 18.5276L1.38916 18.3745ZM0.649902 10.8638L0.257588 10.7857H0.257588L0.649902 10.8638ZM4.20752 4.20752L3.92468 3.92468L4.20752 4.20752ZM13.3999 2.3999L13.4004 1.9999H13.3999V2.3999ZM7.28857 4.25342L7.06635 3.92083L7.06635 3.92083L7.28857 4.25342ZM3.23682 9.18994L2.86727 9.03686L2.86726 9.03687L3.23682 9.18994ZM2.61084 15.5454L2.21852 15.6234L2.21853 15.6234L2.61084 15.5454ZM5.62158 21.1782L5.33874 21.4611L5.62158 21.1782ZM11.2544 24.189L11.1764 24.5813L11.1764 24.5813L11.2544 24.189ZM14.4097 24.3521L14.4464 24.7504L14.4461 23.9537L14.4097 24.3521ZM7.62549 21.1743L7.34264 21.4572L7.34265 21.4572L7.62549 21.1743ZM4.3999 13.3999L3.9999 13.3999L3.9999 13.4004L4.3999 13.3999ZM7.03564 7.03662L6.7528 6.75378L6.75279 6.75379L7.03564 7.03662ZM13.3999 4.3999V3.9999V4.3999ZM19.7642 7.03662L20.047 6.75379L20.047 6.75378L19.7642 7.03662ZM22.3999 13.3999H22.7999V13.3999L22.3999 13.3999ZM20.3501 18.3501L20.6329 18.6329L20.6329 18.6329L20.3501 18.3501ZM15.3999 20.3999V20.7999V20.3999ZM10.4497 18.3501L10.1669 18.6329L10.1669 18.6329L10.4497 18.3501ZM8.3999 13.3999L7.9999 13.3999V13.3999H8.3999ZM9.86475 9.86475L9.58191 9.58189L9.5819 9.5819L9.86475 9.86475ZM13.3999 8.3999V7.9999V8.3999ZM16.9351 9.86475L17.2179 9.5819L17.2179 9.58189L16.9351 9.86475ZM18.3999 13.3999H18.7999V13.3999L18.3999 13.3999ZM17.521 15.521L17.8038 15.8038L17.8039 15.8038L17.521 15.521ZM15.3999 16.3999V16.7999V16.3999ZM13.2788 15.521L12.9959 15.8038L12.996 15.8038L13.2788 15.521ZM12.3999 13.3999L11.9999 13.3998V13.3999H12.3999ZM12.6929 12.6929L12.4101 12.41L12.41 12.41L12.6929 12.6929ZM13.3999 12.3999L13.3999 11.9999H13.3999V12.3999ZM14.1069 12.6929L14.3898 12.41L14.3897 12.41L14.1069 12.6929ZM14.395 13.3013L14.7945 13.2815L14.794 13.2716L14.7931 13.2617L14.395 13.3013ZM14.4048 13.4985L14.0053 13.5183L14.0058 13.5281L14.0067 13.5379L14.4048 13.4985ZM14.6929 14.1069L14.41 14.3897L14.41 14.3898L14.6929 14.1069ZM15.3999 14.3999V14.7999H15.3999L15.3999 14.3999ZM16.1069 14.1069L16.3898 14.3898L16.3898 14.3897L16.1069 14.1069ZM16.3999 13.3999H16.7999V13.3999L16.3999 13.3999ZM15.521 11.2788L15.8038 10.996L15.8038 10.9959L15.521 11.2788ZM13.3999 10.3999V9.9999V10.3999ZM11.2788 11.2788L10.996 10.9959L10.996 10.996L11.2788 11.2788ZM10.3999 13.3999L9.9999 13.3999V13.3999H10.3999ZM11.8647 16.936L11.5819 17.2189L11.5819 17.2189L11.8647 16.936ZM15.3999 18.3999V18.7999V18.3999ZM18.9351 16.936L19.2179 17.2189L19.2179 17.2189L18.9351 16.936ZM20.3999 13.3999H20.7999V13.3999L20.3999 13.3999ZM18.3501 8.45068L18.633 8.16786L18.6329 8.16784L18.3501 8.45068ZM13.3999 6.3999V5.9999V6.3999ZM8.44971 8.45068L8.16686 8.16784L8.16684 8.16786L8.44971 8.45068ZM6.3999 13.3999L5.9999 13.3999V13.3999H6.3999ZM9.03564 19.7642L8.7528 20.047L8.7528 20.047L9.03564 19.7642ZM15.3999 22.3999V22.7999V22.3999ZM21.7642 19.7642L22.047 20.047L22.047 20.047L21.7642 19.7642ZM24.3892 13.8462L24.7888 13.866L24.789 13.8558L24.3892 13.8462ZM24.3999 13.3999L24.7999 13.4095L24.7999 13.3994L24.3999 13.3999ZM21.1743 5.62549L21.4572 5.34265L21.1743 5.62549ZM10.8638 0.649902L10.9418 1.04222C13.3859 0.556058 15.9192 0.805183 18.2214 1.75872L18.3745 1.38916L18.5276 1.0196C16.0791 0.00549635 13.3849 -0.25942 10.7857 0.257588L10.8638 0.649902ZM18.3745 1.38916L18.2214 1.75871C20.5238 2.71239 22.4924 4.32745 23.8769 6.39947L24.2095 6.17725L24.5421 5.95502C23.0696 3.75136 20.9761 2.0338 18.5276 1.01961L18.3745 1.38916ZM24.2095 6.17725L23.8769 6.39947C25.2613 8.47148 25.9999 10.9078 25.9999 13.3999H26.3999H26.7999C26.7999 10.7497 26.0145 8.15867 24.5421 5.95502L24.2095 6.17725ZM26.3999 13.3999L25.9999 13.3994C25.9961 16.7402 24.6677 19.9434 22.3055 22.3055L22.5884 22.5884L22.8712 22.8712C25.3833 20.3592 26.7958 16.9528 26.7999 13.4004L26.3999 13.3999ZM22.5884 22.5884L22.3055 22.3055C19.9434 24.6677 16.7402 25.9961 13.3994 25.9999L13.3999 26.3999L13.4004 26.7999C16.9528 26.7958 20.3592 25.3833 22.8712 22.8712L22.5884 22.5884ZM13.3999 26.3999V25.9999C10.9078 25.9999 8.47148 25.2613 6.39947 23.8769L6.17725 24.2095L5.95502 24.5421C8.15867 26.0145 10.7497 26.7999 13.3999 26.7999V26.3999ZM6.17725 24.2095L6.39947 23.8769C4.32745 22.4924 2.71239 20.5238 1.75871 18.2214L1.38916 18.3745L1.01961 18.5276C2.0338 20.9761 3.75136 23.0696 5.95502 24.5421L6.17725 24.2095ZM1.38916 18.3745L1.75872 18.2214C0.805183 15.9192 0.556058 13.3859 1.04222 10.9418L0.649902 10.8638L0.257588 10.7857C-0.25942 13.3849 0.00549635 16.0791 1.0196 18.5276L1.38916 18.3745ZM0.649902 10.8638L1.04222 10.9418C1.52839 8.49763 2.72824 6.25249 4.49036 4.49036L4.20752 4.20752L3.92468 3.92468C2.05064 5.79871 0.774626 8.18641 0.257588 10.7857L0.649902 10.8638ZM4.20752 4.20752L4.49036 4.49036C6.25249 2.72824 8.49763 1.52839 10.9418 1.04222L10.8638 0.649902L10.7857 0.257588C8.18641 0.774626 5.79871 2.05064 3.92468 3.92468L4.20752 4.20752ZM13.3999 2.3999V1.9999C11.1453 1.9999 8.94108 2.66821 7.06635 3.92083L7.28857 4.25342L7.5108 4.58601C9.25391 3.42133 11.3034 2.7999 13.3999 2.7999V2.3999ZM7.28857 4.25342L7.06635 3.92083C5.19173 5.17341 3.73013 6.95385 2.86727 9.03686L3.23682 9.18994L3.60636 9.34302C4.40865 7.40626 5.76768 5.75072 7.5108 4.58601L7.28857 4.25342ZM3.23682 9.18994L2.86726 9.03687C2.00449 11.1198 1.77881 13.4122 2.21852 15.6234L2.61084 15.5454L3.00316 15.4674C2.59429 13.4113 2.80416 11.2797 3.60637 9.34301L3.23682 9.18994ZM2.61084 15.5454L2.21853 15.6234C2.6584 17.8348 3.74442 19.8667 5.33874 21.4611L5.62158 21.1782L5.90442 20.8954C4.42199 19.4129 3.41216 17.5236 3.00315 15.4674L2.61084 15.5454ZM5.62158 21.1782L5.33874 21.4611C6.93306 23.0554 8.96498 24.1414 11.1764 24.5813L11.2544 24.189L11.3324 23.7966C9.27623 23.3876 7.38686 22.3778 5.90442 20.8954L5.62158 21.1782ZM11.2544 24.189L11.1764 24.5813C12.2588 24.7965 13.3601 24.8505 14.4464 24.7504L14.4097 24.3521L14.3729 23.9537C13.362 24.0469 12.3381 23.9966 11.3324 23.7966L11.2544 24.189ZM14.4097 24.3521L14.4461 23.9537C11.9856 23.7287 9.66918 22.6523 7.90833 20.8915L7.62549 21.1743L7.34265 21.4572C9.23657 23.3511 11.7278 24.5084 14.3732 24.7504L14.4097 24.3521ZM7.62549 21.1743L7.90834 20.8915C5.92115 18.9042 4.80322 16.2098 4.7999 13.3994L4.3999 13.3999L3.9999 13.4004C4.00347 16.4226 5.20567 19.3201 7.34264 21.4572L7.62549 21.1743ZM4.3999 13.3999L4.7999 13.3999C4.79996 11.1193 5.70596 8.93218 7.3185 7.31945L7.03564 7.03662L6.75279 6.75379C4.99025 8.51653 3.99997 10.9071 3.9999 13.3999L4.3999 13.3999ZM7.03564 7.03662L7.31849 7.31946C8.93134 5.70661 11.1191 4.7999 13.3999 4.7999V4.3999V3.9999C10.9068 3.9999 8.5156 4.99098 6.7528 6.75378L7.03564 7.03662ZM13.3999 4.3999V4.7999C15.6807 4.7999 17.8685 5.70661 19.4813 7.31946L19.7642 7.03662L20.047 6.75378C18.2842 4.99098 15.893 3.9999 13.3999 3.9999V4.3999ZM19.7642 7.03662L19.4813 7.31945C21.0938 8.93218 21.9998 11.1193 21.9999 13.3999L22.3999 13.3999L22.7999 13.3999C22.7998 10.9071 21.8096 8.51653 20.047 6.75379L19.7642 7.03662ZM22.3999 13.3999H21.9999C21.9999 15.1504 21.3049 16.8296 20.0672 18.0673L20.3501 18.3501L20.6329 18.6329C22.0207 17.2451 22.7999 15.3624 22.7999 13.3999H22.3999ZM20.3501 18.3501L20.0673 18.0673C18.8296 19.3049 17.1504 19.9999 15.3999 19.9999V20.3999V20.7999C17.3624 20.7999 19.2451 20.0208 20.6329 18.6329L20.3501 18.3501ZM15.3999 20.3999V19.9999C13.6494 19.9999 11.9702 19.3049 10.7325 18.0673L10.4497 18.3501L10.1669 18.6329C11.5547 20.0208 13.4374 20.7999 15.3999 20.7999V20.3999ZM10.4497 18.3501L10.7326 18.0673C9.49495 16.8296 8.7999 15.1504 8.7999 13.3999H8.3999H7.9999C7.9999 15.3624 8.77911 17.2451 10.1669 18.6329L10.4497 18.3501ZM8.3999 13.3999L8.7999 13.3999C8.79996 12.1801 9.28491 11.0103 10.1476 10.1476L9.86475 9.86475L9.5819 9.5819C8.56933 10.5945 7.99997 11.9677 7.9999 13.3999L8.3999 13.3999ZM9.86475 9.86475L10.1476 10.1476C11.0103 9.28491 12.1801 8.7999 13.3999 8.7999V8.3999V7.9999C11.9677 7.9999 10.5945 8.56937 9.58191 9.58189L9.86475 9.86475ZM13.3999 8.3999V8.7999C14.6197 8.7999 15.7895 9.28491 16.6522 10.1476L16.9351 9.86475L17.2179 9.58189C16.2053 8.56937 14.8321 7.9999 13.3999 7.9999V8.3999ZM16.9351 9.86475L16.6522 10.1476C17.5149 11.0103 17.9998 12.1801 17.9999 13.3999L18.3999 13.3999L18.7999 13.3999C18.7998 11.9677 18.2305 10.5945 17.2179 9.5819L16.9351 9.86475ZM18.3999 13.3999H17.9999C17.9999 14.0893 17.7258 14.7505 17.2381 15.2382L17.521 15.521L17.8039 15.8038C18.4413 15.1663 18.7999 14.3017 18.7999 13.3999H18.3999ZM17.521 15.521L17.2382 15.2382C16.7505 15.7258 16.0894 15.9999 15.3999 15.9999V16.3999V16.7999C16.3017 16.7999 17.1663 16.4414 17.8038 15.8038L17.521 15.521ZM15.3999 16.3999V15.9999C14.7104 15.9999 14.0493 15.7258 13.5617 15.2382L13.2788 15.521L12.996 15.8038C13.6335 16.4414 14.4981 16.7999 15.3999 16.7999V16.3999ZM13.2788 15.521L13.5617 15.2382C13.074 14.7505 12.7999 14.0893 12.7999 13.3999H12.3999H11.9999C11.9999 14.3017 12.3585 15.1663 12.9959 15.8038L13.2788 15.521ZM12.3999 13.3999L12.7999 13.4C12.7999 13.2409 12.8632 13.0882 12.9757 12.9757L12.6929 12.6929L12.41 12.41C12.1476 12.6725 12 13.0286 11.9999 13.3998L12.3999 13.3999ZM12.6929 12.6929L12.9757 12.9758C13.0883 12.8632 13.241 12.7999 13.3999 12.7999V12.3999V11.9999C13.0285 11.9999 12.6725 12.1477 12.4101 12.41L12.6929 12.6929ZM13.3999 12.3999L13.3999 12.7999C13.5588 12.7999 13.7115 12.8632 13.8241 12.9758L14.1069 12.6929L14.3897 12.41C14.1273 12.1477 13.7713 11.9999 13.3999 11.9999L13.3999 12.3999ZM14.1069 12.6929L13.8241 12.9757C13.9225 13.0742 13.9833 13.2035 13.997 13.3408L14.395 13.3013L14.7931 13.2617C14.7612 12.9412 14.6195 12.6397 14.3898 12.41L14.1069 12.6929ZM14.395 13.3013L13.9955 13.321L14.0053 13.5183L14.4048 13.4985L14.8043 13.4788L14.7945 13.2815L14.395 13.3013ZM14.4048 13.4985L14.0067 13.5379C14.0384 13.8588 14.1804 14.1601 14.41 14.3897L14.6929 14.1069L14.9758 13.8241C14.8771 13.7254 14.8164 13.5963 14.8028 13.4592L14.4048 13.4985ZM14.6929 14.1069L14.41 14.3898C14.6725 14.6522 15.0285 14.7999 15.3999 14.7999V14.3999V13.9999C15.2409 13.9999 15.0883 13.9367 14.9757 13.8241L14.6929 14.1069ZM15.3999 14.3999L15.3999 14.7999C15.7713 14.7999 16.1273 14.6522 16.3898 14.3898L16.1069 14.1069L15.8241 13.8241C15.7115 13.9367 15.5589 13.9999 15.3999 13.9999L15.3999 14.3999ZM16.1069 14.1069L16.3898 14.3897C16.6521 14.1273 16.7999 13.7713 16.7999 13.3999H16.3999H15.9999C15.9999 13.5588 15.9366 13.7115 15.824 13.8241L16.1069 14.1069ZM16.3999 13.3999L16.7999 13.3999C16.7998 12.4982 16.4413 11.6335 15.8038 10.996L15.521 11.2788L15.2382 11.5617C15.7258 12.0492 15.9998 12.7105 15.9999 13.3999L16.3999 13.3999ZM15.521 11.2788L15.8038 10.9959C15.1663 10.3585 14.3017 9.9999 13.3999 9.9999V10.3999V10.7999C14.0893 10.7999 14.7505 11.074 15.2382 11.5617L15.521 11.2788ZM13.3999 10.3999V9.9999C12.4981 9.9999 11.6335 10.3585 10.996 10.9959L11.2788 11.2788L11.5616 11.5617C12.0493 11.074 12.7105 10.7999 13.3999 10.7999V10.3999ZM11.2788 11.2788L10.996 10.996C10.3585 11.6335 9.99998 12.4982 9.9999 13.3999L10.3999 13.3999L10.7999 13.3999C10.8 12.7105 11.0741 12.0492 11.5617 11.5617L11.2788 11.2788ZM10.3999 13.3999H9.9999C9.9999 14.8321 10.5692 16.2062 11.5819 17.2189L11.8647 16.936L12.1476 16.6532C11.2849 15.7905 10.7999 14.6199 10.7999 13.3999H10.3999ZM11.8647 16.936L11.5819 17.2189C12.5946 18.2314 13.968 18.7999 15.3999 18.7999V18.3999V17.9999C14.18 17.9999 13.0102 17.5156 12.1476 16.6532L11.8647 16.936ZM15.3999 18.3999V18.7999C16.8318 18.7999 18.2052 18.2314 19.2179 17.2189L18.9351 16.936L18.6522 16.6532C17.7896 17.5156 16.6198 17.9999 15.3999 17.9999V18.3999ZM18.9351 16.936L19.2179 17.2189C20.2306 16.2062 20.7999 14.8321 20.7999 13.3999H20.3999H19.9999C19.9999 14.6199 19.5149 15.7905 18.6522 16.6532L18.9351 16.936ZM20.3999 13.3999L20.7999 13.3999C20.7998 11.4376 20.0204 9.55554 18.633 8.16786L18.3501 8.45068L18.0672 8.73351C19.3047 9.97115 19.9998 11.6497 19.9999 13.3999L20.3999 13.3999ZM18.3501 8.45068L18.6329 8.16784C17.2452 6.78011 15.3626 5.9999 13.3999 5.9999V6.3999V6.7999C15.1503 6.7999 16.8295 7.49575 18.0673 8.73353L18.3501 8.45068ZM13.3999 6.3999V5.9999C11.4373 5.9999 9.5546 6.78011 8.16686 8.16784L8.44971 8.45068L8.73255 8.73353C9.97033 7.49575 11.6495 6.7999 13.3999 6.7999V6.3999ZM8.44971 8.45068L8.16684 8.16786C6.77937 9.55554 5.99997 11.4376 5.9999 13.3999L6.3999 13.3999L6.7999 13.3999C6.79996 11.6497 7.49511 9.97115 8.73257 8.73351L8.44971 8.45068ZM6.3999 13.3999H5.9999C5.9999 15.8928 6.99 18.2841 8.7528 20.047L9.03564 19.7642L9.31849 19.4813C7.70578 17.8685 6.7999 15.6807 6.7999 13.3999H6.3999ZM9.03564 19.7642L8.7528 20.047C10.5157 21.8099 12.9069 22.7999 15.3999 22.7999V22.3999V21.9999C13.119 21.9999 10.9313 21.0941 9.31849 19.4813L9.03564 19.7642ZM15.3999 22.3999V22.7999C17.8929 22.7999 20.2841 21.8099 22.047 20.047L21.7642 19.7642L21.4813 19.4813C19.8685 21.0941 17.6808 21.9999 15.3999 21.9999V22.3999ZM21.7642 19.7642L22.047 20.047C23.6997 18.3943 24.6735 16.1894 24.7887 13.866L24.3892 13.8462L23.9897 13.8264C23.8843 15.952 22.9933 17.9693 21.4813 19.4813L21.7642 19.7642ZM24.3892 13.8462L24.789 13.8558L24.7998 13.4095L24.3999 13.3999L24 13.3903L23.9893 13.8366L24.3892 13.8462ZM24.3999 13.3999L24.7999 13.3994C24.7963 10.3772 23.5942 7.4797 21.4572 5.34265L21.1743 5.62549L20.8915 5.90833C22.8787 7.89558 23.9966 10.59 23.9999 13.4004L24.3999 13.3999ZM21.1743 5.62549L21.4572 5.34265C19.3201 3.20559 16.4226 2.00347 13.4004 1.9999L13.3999 2.3999L13.3994 2.7999C16.2098 2.80322 18.9042 3.92108 20.8915 5.90833L21.1743 5.62549Z" fill="#F0F1FF"/>
</svg>
