<svg width="28" height="28" viewBox="0 0 28 28" fill="none" xmlns="http://www.w3.org/2000/svg">
<g clip-path="url(#clip0_1_490)">
<path d="M20.3507 2.61483C18.651 0.927069 16.4006 6.10352e-05 14.0068 6.10352e-05C13.9852 6.10352e-05 13.963 0.000115723 13.9414 0.000279785C11.6043 0.0167407 9.39163 0.932374 7.71076 2.57852C6.02956 4.225 5.06864 6.41819 5.00515 8.75394C4.93892 11.188 5.83049 13.4934 7.51563 15.2454C8.84263 16.6251 9.57342 18.4601 9.57342 20.4126V24.1687C9.57342 24.9403 10.1092 25.5889 10.8281 25.7628V26.2637C10.8281 27.2211 11.607 28 12.5644 28H15.4355C16.3929 28 17.1719 27.2211 17.1719 26.2637V25.7657C17.8971 25.5963 18.439 24.9448 18.439 24.1687V20.4127C18.439 18.4857 19.1899 16.6295 20.5534 15.186C22.138 13.5083 23.0107 11.313 23.0107 9.00452C23.0107 6.58733 22.0661 4.31808 20.3507 2.61483ZM16.0782 26.2637C16.0782 26.6181 15.7899 26.9063 15.4356 26.9063H12.5645C12.2102 26.9063 11.9219 26.6181 11.9219 26.2637V25.8091H16.0782V26.2637ZM17.3453 24.1687C17.3453 24.4701 17.1001 24.7154 16.7986 24.7154H16.625H11.375H11.2139C10.9124 24.7154 10.6672 24.4701 10.6672 24.1687V21.0583H17.3453V24.1687ZM13.1472 19.9646V13.0473H14.8509V19.9645H13.1472V19.9646ZM19.7584 14.4349C18.3079 15.9705 17.4649 17.9192 17.3571 19.9645H15.9447V13.0473H16.4362C17.3103 13.0473 18.0215 12.3361 18.0215 11.462V11.3772C18.0215 10.503 17.3103 9.79186 16.4362 9.79186C15.5621 9.79186 14.8509 10.503 14.8509 11.3772V11.9535H13.1472V11.3772C13.1472 10.503 12.436 9.79186 11.5619 9.79186H11.4542C10.58 9.79186 9.86889 10.503 9.86889 11.3772V11.462C9.86889 12.3361 10.58 13.0473 11.4542 13.0473H12.0534V19.9645H10.656C10.5516 17.8961 9.72572 15.9653 8.30395 14.4872C6.82356 12.948 6.04027 10.9225 6.09852 8.78369C6.21303 4.5733 9.73474 1.12373 13.9491 1.09398C16.0761 1.07905 18.0733 1.89476 19.5801 3.39096C21.0872 4.88732 21.917 6.88095 21.917 9.00452C21.917 11.0327 21.1504 12.9612 19.7584 14.4349ZM15.9447 11.9535V11.3772C15.9447 11.1061 16.1652 10.8856 16.4362 10.8856C16.7073 10.8856 16.9278 11.1062 16.9278 11.3772V11.462C16.9278 11.733 16.7073 11.9535 16.4362 11.9535H15.9447ZM12.0534 11.3772V11.9535H11.4541C11.1831 11.9535 10.9626 11.733 10.9626 11.462V11.3772C10.9626 11.1061 11.1831 10.8856 11.4541 10.8856H11.5619C11.8329 10.8856 12.0534 11.1062 12.0534 11.3772Z" fill="currentColor"/>
<path d="M19.8683 6.63714C19.3985 5.47087 18.5995 4.47835 17.5578 3.76687C16.49 3.03761 15.2383 2.65698 13.9413 2.66612C13.6392 2.66825 13.3961 2.91483 13.3982 3.21687C13.4003 3.5176 13.6448 3.75987 13.945 3.75987C13.9463 3.75987 13.9477 3.75987 13.9489 3.75987C13.9618 3.75981 13.9743 3.75976 13.9871 3.75976C16.1406 3.75976 18.0483 5.04628 18.8538 7.04582C18.9397 7.25899 19.1447 7.38849 19.3612 7.38849C19.4293 7.38849 19.4985 7.37575 19.5654 7.34873C19.8455 7.23586 19.9812 6.91725 19.8683 6.63714Z" fill="currentColor"/>
<path d="M20.1654 8.61769C20.0637 8.51597 19.9226 8.45746 19.7788 8.45746C19.635 8.45746 19.4939 8.51597 19.3922 8.61769C19.2899 8.71941 19.2319 8.86051 19.2319 9.00433C19.2319 9.14871 19.2899 9.28925 19.3922 9.39097C19.4939 9.49324 19.6344 9.55121 19.7788 9.55121C19.9226 9.55121 20.0637 9.49324 20.1654 9.39097C20.2671 9.28925 20.3257 9.14871 20.3257 9.00433C20.3257 8.86051 20.2672 8.71941 20.1654 8.61769Z" fill="currentColor"/>
<path d="M25.3985 2.72395C25.1849 2.51039 24.8388 2.51039 24.6251 2.72395L23.6062 3.74283C23.3927 3.95639 23.3927 4.30267 23.6062 4.51628C23.713 4.62308 23.853 4.67646 23.993 4.67646C24.133 4.67646 24.2729 4.62308 24.3797 4.51628L25.3985 3.49739C25.6121 3.28384 25.6121 2.93756 25.3985 2.72395Z" fill="currentColor"/>
<path d="M25.3985 14.5118L24.3797 13.4929C24.1661 13.2793 23.8199 13.2793 23.6062 13.4929C23.3927 13.7064 23.3927 14.0527 23.6062 14.2663L24.6251 15.2851C24.7319 15.3919 24.8718 15.4453 25.0118 15.4453C25.1517 15.4453 25.2917 15.3919 25.3985 15.2851C25.612 15.0716 25.612 14.7253 25.3985 14.5118Z" fill="currentColor"/>
<path d="M27.4532 8.4577H26.0122C25.7102 8.4577 25.4653 8.70254 25.4653 9.00458C25.4653 9.30662 25.7102 9.55145 26.0122 9.55145H27.4532C27.7552 9.55145 28 9.30662 28 9.00458C28 8.70254 27.7552 8.4577 27.4532 8.4577Z" fill="currentColor"/>
<path d="M4.39385 3.74289L3.37502 2.72401C3.16141 2.51045 2.81524 2.51045 2.60157 2.72401C2.38802 2.93756 2.38802 3.28384 2.60157 3.49745L3.62045 4.51634C3.72726 4.62314 3.86721 4.67652 4.00715 4.67652C4.1471 4.67652 4.28704 4.62314 4.39385 4.51634C4.6074 4.30273 4.6074 3.9565 4.39385 3.74289Z" fill="currentColor"/>
<path d="M4.39385 13.4928C4.18029 13.2792 3.83406 13.2792 3.62045 13.4928L2.60157 14.5118C2.38802 14.7253 2.38802 15.0716 2.60157 15.2852C2.70838 15.392 2.84832 15.4454 2.98827 15.4454C3.12821 15.4454 3.26816 15.3919 3.37496 15.2852L4.39385 14.2663C4.6074 14.0527 4.6074 13.7065 4.39385 13.4928Z" fill="currentColor"/>
<path d="M1.98784 8.4577H0.546875C0.244891 8.4577 0 8.70254 0 9.00458C0 9.30662 0.244891 9.55145 0.546875 9.55145H1.98784C2.28982 9.55145 2.53471 9.30662 2.53471 9.00458C2.53471 8.70254 2.28982 8.4577 1.98784 8.4577Z" fill="currentColor"/>
</g>
<defs>
<clipPath id="clip0_1_490">
<rect width="28" height="28" fill="white"/>
</clipPath>
</defs>
</svg>
