<svg width="24" height="24" viewBox="0 0 24 24" fill="none" xmlns="http://www.w3.org/2000/svg">
<g clip-path="url(#clip0_1_444)">
<path d="M14.3913 3.89062C14.1273 3.89062 13.9131 4.10063 13.9131 4.35938C13.9131 4.61813 14.1273 4.82812 14.3913 4.82812C14.6553 4.82812 14.8696 4.61813 14.8696 4.35938C14.8696 4.10063 14.6553 3.89062 14.3913 3.89062Z" fill="currentColor"/>
<path d="M9.60863 3.89062C9.34463 3.89062 9.13037 4.10063 9.13037 4.35938C9.13037 4.61813 9.34463 4.82812 9.60863 4.82812C9.87263 4.82812 10.0869 4.61813 10.0869 4.35938C10.0869 4.10063 9.87263 3.89062 9.60863 3.89062Z" fill="currentColor"/>
<path d="M22.384 14.01C22.7943 13.4062 23 12.653 23 12C23 11.0156 22.5538 10.1016 21.7886 9.48141C21.9579 9.08484 22.0435 8.67188 22.0435 8.25C22.0435 6.94453 21.2658 5.72813 20.1103 5.16C20.2859 3.73453 19.338 2.42766 17.9333 2.09438C17.3833 0.848438 16.1599 0 14.8696 0C13.6687 0 12.5916 0.686719 12 1.68844C11.4084 0.686719 10.3313 0 9.13043 0C7.84009 0 6.6167 0.848438 6.06717 2.09438C4.65439 2.43 3.71509 3.74297 3.89013 5.16C2.73417 5.72813 1.95652 6.94453 1.95652 8.25C1.95652 8.67188 2.04213 9.08438 2.21143 9.48141C1.44622 10.1016 1 11.0156 1 12C1 12.6562 1.20709 13.4086 1.616 14.01C1.21665 14.5627 1 15.2175 1 15.8906C1 16.7634 1.36109 17.5945 1.99957 18.2119C1.67148 20.1567 3.25404 22.125 5.30435 22.125C5.31917 22.125 5.33352 22.125 5.34787 22.1245C6.02748 23.2739 7.28961 24 8.65217 24C10.0147 24 11.341 23.1647 12 21.9614C12.659 23.1647 13.9279 24 15.3478 24C16.7678 24 17.972 23.2739 18.6521 22.1245C18.6665 22.1245 18.6808 22.125 18.6957 22.125C20.5102 22.125 22.0435 20.558 22.0435 18.7031C22.0435 18.5452 22.0291 18.383 22.0004 18.2119C22.6389 17.5945 23 16.7634 23 15.8906C23 15.2175 22.7838 14.5627 22.384 14.01ZM11.5217 7.09594C11.24 6.93609 10.9134 6.84375 10.5652 6.84375C10.3012 6.84375 10.087 7.05375 10.087 7.3125C10.087 7.57125 10.3012 7.78125 10.5652 7.78125C11.0927 7.78125 11.5217 8.20172 11.5217 8.71875V17.633C10.8201 16.853 9.79426 16.3594 8.65217 16.3594C8.38817 16.3594 8.17391 16.5694 8.17391 16.8281C8.17391 17.0869 8.38817 17.2969 8.65217 17.2969C10.2343 17.2969 11.5217 18.5588 11.5217 20.1094C11.5217 21.66 10.2075 23.0625 8.65217 23.0625C7.545 23.0625 6.52583 22.4208 6.05522 21.4275C5.96865 21.2447 5.77209 21.1364 5.56739 21.1589C5.53343 21.1627 5.49996 21.1669 5.46648 21.1716C4.10535 21.3539 2.57252 19.8436 2.98765 18.1533C3.03022 17.9798 2.96852 17.7975 2.82839 17.6836C2.27457 17.2317 1.95652 16.5783 1.95652 15.8906C1.95652 15.4655 2.07896 15.0492 2.30757 14.6845C2.881 15.1453 3.59457 15.4219 4.34783 15.4219C4.61183 15.4219 4.82609 15.2119 4.82609 14.9531C4.82609 14.6944 4.61183 14.4844 4.34783 14.4844C3.04983 14.4844 1.95652 13.3233 1.95652 12C1.95652 11.1975 2.37404 10.4587 3.07326 10.0247C3.28848 9.89109 3.35926 9.615 3.23348 9.3975C3.02113 9.03 2.91304 8.64422 2.91304 8.25C2.91304 6.98484 3.96522 5.76562 5.30435 5.76562C6.64348 5.76562 7.69565 6.92672 7.69565 8.25C7.69565 8.50875 7.90991 8.71875 8.17391 8.71875C8.43791 8.71875 8.65217 8.50875 8.65217 8.25C8.65217 6.39516 7.11887 4.82812 5.30435 4.82812C5.14413 4.82812 4.98487 4.84078 4.82752 4.86469C4.82752 4.8525 4.82609 4.84031 4.82609 4.82812C4.82609 3.78188 5.6927 2.95312 6.73913 2.95312C7.24991 2.95312 7.73056 3.14812 8.09213 3.50203C8.27913 3.68484 8.58187 3.68484 8.76839 3.50203C8.95491 3.31875 8.95491 3.02203 8.76839 2.83922C8.33222 2.41219 7.7803 2.13984 7.182 2.04938C7.60383 1.43578 8.30496 0.937969 9.13043 0.937969C10.4045 0.937969 11.5217 2.09906 11.5217 3.42234V7.09641V7.09594ZM19.6522 15.4219C20.4054 15.4219 21.119 15.1453 21.6924 14.6845C21.9206 15.0492 22.0435 15.4655 22.0435 15.8906C22.0435 16.5783 21.7259 17.2317 21.1716 17.6836C21.0315 17.798 20.9698 17.9798 21.0123 18.1533C21.063 18.3595 21.0865 18.5344 21.0865 18.7027C21.0865 20.1577 19.7435 21.3337 18.533 21.1716C18.4996 21.1669 18.4656 21.1627 18.4321 21.1589C18.227 21.1364 18.0309 21.2442 17.9443 21.4275C17.4742 22.4208 16.4545 23.0625 15.3473 23.0625C13.792 23.0625 12.4778 21.7102 12.4778 20.1094C12.4778 18.5086 13.7653 17.2969 15.3473 17.2969C15.6113 17.2969 15.8256 17.0869 15.8256 16.8281C15.8256 16.5694 15.6113 16.3594 15.3473 16.3594C14.2053 16.3594 13.1794 16.853 12.4778 17.633V8.71875C12.4778 8.20172 12.9068 7.78125 13.4343 7.78125C13.6983 7.78125 13.9126 7.57125 13.9126 7.3125C13.9126 7.05375 13.6983 6.84375 13.4343 6.84375C13.0861 6.84375 12.7595 6.93609 12.4778 7.09594V3.42188C12.4778 2.09859 13.595 0.9375 14.8691 0.9375C15.6946 0.9375 16.3957 1.43531 16.8175 2.04891C16.2197 2.13937 15.6678 2.41172 15.2311 2.83875C15.0441 3.02156 15.0441 3.31828 15.2311 3.50156C15.4177 3.68484 15.7209 3.68484 15.9074 3.50156C16.2694 3.14766 16.7496 2.95219 17.2604 2.95219C18.3121 2.95219 19.1734 3.78609 19.1734 4.82719C19.1734 4.83938 19.1725 4.85156 19.1725 4.86375C19.0147 4.83984 18.8554 4.82719 18.6952 4.82719C16.8807 4.82719 15.3473 6.39422 15.3473 8.24906C15.3473 8.50781 15.5616 8.71781 15.8256 8.71781C16.0896 8.71781 16.3039 8.50781 16.3039 8.24906C16.3039 6.92578 17.4211 5.76469 18.6952 5.76469C20.0333 5.76469 21.0865 6.98344 21.0865 8.24906C21.0865 8.64281 20.9789 9.02906 20.766 9.39656C20.6403 9.61406 20.7106 9.89016 20.9263 10.0238C21.6255 10.4578 22.043 11.1966 22.043 11.9991C22.043 13.327 20.9459 14.4834 19.6517 14.4834C19.3877 14.4834 19.1734 14.6934 19.1734 14.9522C19.1734 15.2109 19.3877 15.4209 19.6517 15.4209L19.6522 15.4219Z" fill="currentColor"/>
<path d="M10.4431 10.0336C10.2671 9.84046 9.96484 9.82406 9.7678 9.99656C8.23401 11.3409 5.78245 10.2666 5.78245 8.24953C5.78245 7.99078 5.56819 7.78078 5.30419 7.78078C5.04019 7.78078 4.82593 7.99078 4.82593 8.24953C4.82593 9.87656 6.04119 11.2308 7.62854 11.4867C7.44441 12.0553 6.9011 12.4683 6.26071 12.4683C5.99671 12.4683 5.78245 12.6783 5.78245 12.937C5.78245 13.1958 5.99671 13.4058 6.26071 13.4058C7.42575 13.4058 8.39806 12.585 8.60897 11.5027C9.27423 11.4173 9.90028 11.1384 10.4058 10.695C10.6028 10.5225 10.6196 10.2262 10.4436 10.0331L10.4431 10.0336Z" fill="currentColor"/>
<path d="M5.30419 18.2344C5.04019 18.2344 4.82593 18.4444 4.82593 18.7031C4.82593 18.9619 5.04019 19.1719 5.30419 19.1719C6.57828 19.1719 7.69549 20.333 7.69549 21.6562C7.69549 21.915 7.90975 22.125 8.17375 22.125C8.43775 22.125 8.65201 21.915 8.65201 21.6562C8.65201 19.8014 7.11871 18.2344 5.30419 18.2344Z" fill="currentColor"/>
<path d="M9.13051 14.4844C7.50968 14.4844 6.11842 15.3553 5.38572 16.6223C5.25564 16.8473 5.33599 17.1337 5.56603 17.2612C5.79607 17.3887 6.08781 17.31 6.2179 17.0845C6.78846 16.0973 7.87173 15.4219 9.13051 15.4219C9.39451 15.4219 9.60877 15.2119 9.60877 14.9531C9.60877 14.6944 9.39451 14.4844 9.13051 14.4844Z" fill="currentColor"/>
<path d="M17.7392 12.4688C17.0988 12.4688 16.5555 12.0553 16.3714 11.4872C17.9587 11.2312 19.174 9.8775 19.174 8.25C19.174 7.99125 18.9597 7.78125 18.6957 7.78125C18.4317 7.78125 18.2175 7.99125 18.2175 8.25C18.2175 9.54234 17.1447 10.5938 15.8262 10.5938C15.2369 10.5938 14.6712 10.3819 14.2321 9.99703C14.0355 9.82453 13.7328 9.84094 13.5568 10.0341C13.3808 10.2272 13.3975 10.5234 13.5946 10.6959C14.1001 11.1394 14.7262 11.4183 15.3914 11.5036C15.6023 12.5859 16.5746 13.4067 17.7397 13.4067C18.0037 13.4067 18.2179 13.1967 18.2179 12.938C18.2179 12.6792 18.0037 12.4692 17.7397 12.4692L17.7392 12.4688Z" fill="currentColor"/>
<path d="M18.6957 18.2344C16.8812 18.2344 15.3479 19.8014 15.3479 21.6562C15.3479 21.915 15.5622 22.125 15.8262 22.125C16.0902 22.125 16.3044 21.915 16.3044 21.6562C16.3044 20.333 17.4216 19.1719 18.6957 19.1719C18.9597 19.1719 19.174 18.9619 19.174 18.7031C19.174 18.4444 18.9597 18.2344 18.6957 18.2344Z" fill="currentColor"/>
<path d="M18.6139 16.6223C17.8831 15.3586 16.4933 14.4844 14.8691 14.4844C14.6051 14.4844 14.3909 14.6944 14.3909 14.9531C14.3909 15.2119 14.6051 15.4219 14.8691 15.4219C16.127 15.4219 17.2107 16.0973 17.7817 17.0845C17.9123 17.31 18.204 17.3887 18.4336 17.2612C18.6632 17.1337 18.744 16.8473 18.6139 16.6223Z" fill="currentColor"/>
</g>
<defs>
<clipPath id="clip0_1_444">
<rect width="22" height="24" fill="white" transform="translate(1)"/>
</clipPath>
</defs>
</svg>
