<svg width="24" height="24" viewBox="0 0 24 24" fill="none" xmlns="http://www.w3.org/2000/svg">
<g clip-path="url(#clip0_1_663)">
<path d="M11.5913 11.2807C11.7379 11.1341 11.7379 10.8967 11.5913 10.7505C11.4446 10.6038 11.2076 10.6038 11.061 10.7505C10.4213 11.3902 9.57076 11.7423 8.66626 11.7423C7.76176 11.7423 6.91126 11.3902 6.27151 10.7505C6.12488 10.6038 5.88788 10.6038 5.74126 10.7505C5.59463 10.8971 5.59463 11.1341 5.74126 11.2807C6.52238 12.0618 7.56151 12.4923 8.66626 12.4923C9.77101 12.4923 10.8101 12.0622 11.5913 11.2807Z" fill="currentColor"/>
<path d="M11.2204 7.67401C11.4274 7.67401 11.5954 7.50601 11.5954 7.29901V6.46838C11.5954 6.26138 11.4274 6.09338 11.2204 6.09338C11.0134 6.09338 10.8454 6.26138 10.8454 6.46838V7.29901C10.8454 7.50601 11.0134 7.67401 11.2204 7.67401Z" fill="currentColor"/>
<path d="M6.11176 7.67401C6.31876 7.67401 6.48676 7.50601 6.48676 7.29901V6.46838C6.48676 6.26138 6.31876 6.09338 6.11176 6.09338C5.90476 6.09338 5.73676 6.26138 5.73676 6.46838V7.29901C5.73676 7.50601 5.90476 7.67401 6.11176 7.67401Z" fill="currentColor"/>
<path d="M16.4888 7.51125C15.9266 3.63788 12.6184 0.75 8.66625 0.75C4.30125 0.75 0.75 4.30125 0.75 8.66625C0.75 12.6191 3.639 15.9278 7.51125 16.4888C8.07338 20.3617 11.3816 23.25 15.3337 23.25C19.6987 23.25 23.25 19.6987 23.25 15.3337C23.25 11.3816 20.3617 8.07338 16.4888 7.51125ZM1.5 8.66625C1.5 4.71488 4.71488 1.5 8.66625 1.5C12.333 1.5 15.3945 4.24237 15.7882 7.88175C15.8179 8.1405 15.8329 8.4045 15.8329 8.66625C15.8329 12.618 12.618 15.8325 8.66663 15.8325C8.53575 15.8325 8.40413 15.8287 8.27288 15.8212C8.142 15.8137 8.0115 15.8029 7.88212 15.7879C7.75275 15.7729 7.88063 15.7879 7.87988 15.7879C4.24275 15.3945 1.5 12.333 1.5 8.66625ZM15.3337 22.5C11.8204 22.5 8.86275 19.9826 8.2755 16.5728C8.40563 16.5795 8.53613 16.5825 8.66625 16.5825C13.0312 16.5825 16.5825 13.0312 16.5825 8.66625C16.5825 8.53613 16.5791 8.40563 16.5728 8.2755C19.9826 8.86275 22.5 11.8207 22.5 15.3337C22.5 19.2851 19.2851 22.5 15.3337 22.5Z" fill="currentColor"/>
<path d="M15.3337 16.7119C14.229 16.7119 13.1902 17.142 12.4087 17.9235C12.2621 18.0701 12.2621 18.3071 12.4087 18.4537C12.5554 18.6004 12.7924 18.6004 12.939 18.4537C13.5787 17.814 14.4292 17.4619 15.3337 17.4619C16.2382 17.4619 17.0887 17.814 17.7285 18.4537C17.8016 18.5269 17.8976 18.5636 17.9936 18.5636C18.0896 18.5636 18.1856 18.5269 18.2587 18.4537C18.4054 18.3075 18.4054 18.0701 18.2587 17.9235C17.4776 17.1424 16.4389 16.7119 15.3337 16.7119Z" fill="currentColor"/>
<path d="M17.8882 14.3415C18.0952 14.3415 18.2632 14.1735 18.2632 13.9665V13.1362C18.2632 12.9292 18.0952 12.7612 17.8882 12.7612C17.6812 12.7612 17.5132 12.9292 17.5132 13.1362V13.9665C17.5132 14.1735 17.6812 14.3415 17.8882 14.3415Z" fill="currentColor"/>
</g>
<defs>
<clipPath id="clip0_1_663">
<rect width="24" height="24" fill="white"/>
</clipPath>
</defs>
</svg>
