<svg width="24" height="24" viewBox="0 0 24 24" fill="none" xmlns="http://www.w3.org/2000/svg">
<g clip-path="url(#clip0_1_461)">
<path d="M22.8108 21.8996L20.2204 19.3086C22.0168 17.2929 22.9998 14.7221 22.9998 11.9996C22.9998 9.88164 22.4039 7.84707 21.2722 6.07977L22.8108 4.54105C22.9689 4.38293 23.0338 4.15434 22.9822 3.93734C22.9307 3.72035 22.7708 3.54461 22.5586 3.47414L21.0341 2.96582L20.5258 1.44086C20.455 1.22902 20.2797 1.06875 20.0622 1.01719C19.8448 0.966055 19.6163 1.03094 19.4586 1.18863L17.9199 2.72777C16.1523 1.59598 14.1174 1 12.0001 1C9.06203 1 6.29973 2.14426 4.22231 4.2218C2.14489 6.29934 1.0007 9.0618 1.0007 12C1.0007 14.7225 1.98377 17.2933 3.78019 19.309L1.18932 21.9C0.937543 22.1518 0.937543 22.56 1.18932 22.8114C1.31522 22.9373 1.48021 23 1.6452 23C1.81019 23 1.97518 22.9373 2.10107 22.8114L4.69193 20.2204C6.70748 22.0173 9.27815 23 12.0005 23C14.7228 23 17.2935 22.0169 19.309 20.2204L21.8999 22.8114C22.0258 22.9373 22.1908 23 22.3558 23C22.5208 23 22.6858 22.9373 22.8117 22.8114C23.0634 22.5596 23.0634 22.1518 22.8117 21.9L22.8108 21.8996ZM19.6326 2.83777L19.9127 3.67867C19.9767 3.87117 20.128 4.02242 20.32 4.08645L21.1613 4.36703L19.7396 5.78887L18.5928 5.40645L18.2104 4.25961L19.6322 2.83777H19.6326ZM14.8075 12C14.8075 13.5477 13.5481 14.8071 12.0001 14.8071C10.452 14.8071 9.19307 13.5477 9.19307 12C9.19307 10.4523 10.4524 9.19285 12.0001 9.19285C12.541 9.19285 13.0463 9.34711 13.4755 9.61309L11.5446 11.5445C11.2928 11.7963 11.2928 12.2045 11.5446 12.4559C11.6705 12.5818 11.8355 12.6445 12.0005 12.6445C12.1655 12.6445 12.3305 12.5818 12.4564 12.4559L14.3877 10.5249C14.6541 10.9537 14.8083 11.4595 14.8083 12.0004L14.8075 12ZM14.4036 8.68496C13.7282 8.19383 12.8976 7.90379 12.0001 7.90379C9.74132 7.90379 7.90409 9.74156 7.90409 12C7.90409 14.2584 9.74175 16.0962 12.0001 16.0962C14.2584 16.0962 16.0965 14.2584 16.0965 12C16.0965 11.1028 15.8064 10.2722 15.3149 9.59633L16.8557 8.05547C17.7322 9.1327 18.2589 10.506 18.2589 12C18.2589 15.4513 15.4511 18.2593 12.0001 18.2593C8.54901 18.2593 5.7416 15.4513 5.7416 12C5.7416 8.54875 8.54901 5.74074 12.0001 5.74074C13.494 5.74074 14.8672 6.26711 15.9444 7.1441L14.4036 8.68496ZM2.28969 12C2.28969 6.64523 6.64561 2.28906 12.0001 2.28906C13.7746 2.28906 15.4829 2.76258 16.9854 3.66449C16.8381 3.83551 16.7899 4.0727 16.8621 4.28926L17.3463 5.7416L16.8591 6.22887C15.5452 5.1207 13.8493 4.45168 12.0001 4.45168C7.83835 4.45168 4.45261 7.83762 4.45261 12C4.45261 16.1624 7.83835 19.5483 12.0001 19.5483C16.1618 19.5483 19.5479 16.1624 19.5479 12C19.5479 10.1506 18.879 8.45465 17.7709 7.14066L18.2581 6.6534L19.7108 7.13766C19.7774 7.16 19.8461 7.17074 19.9144 7.17074C20.067 7.17074 20.2169 7.11574 20.3351 7.01391C21.2374 8.51695 21.7109 10.2254 21.7109 12C21.7109 17.3548 17.3549 21.7109 12.0005 21.7109C6.64604 21.7109 2.28969 17.3548 2.28969 12Z" fill="currentColor"/>
</g>
<defs>
<clipPath id="clip0_1_461">
<rect width="24" height="24" fill="white"/>
</clipPath>
</defs>
</svg>
