<svg width="24" height="24" viewBox="0 0 24 24" fill="none" xmlns="http://www.w3.org/2000/svg">
<path d="M9.60938 8.80603V9.30145" stroke="currentColor" stroke-width="0.8" stroke-miterlimit="10" stroke-linecap="round" stroke-linejoin="round"/>
<path d="M14.3906 8.80603V9.30145" stroke="currentColor" stroke-width="0.8" stroke-miterlimit="10" stroke-linecap="round" stroke-linejoin="round"/>
<mask id="mask0_1_340" style="mask-type:luminance" maskUnits="userSpaceOnUse" x="0" y="0" width="24" height="24">
<path d="M0 0H24V24H0V0Z" fill="white"/>
</mask>
<g mask="url(#mask0_1_340)">
<path d="M0.351562 14.9847C0.351562 16.8506 0.351562 18.7165 0.351562 20.5824C0.351562 21.1881 0.917203 21.6338 1.50652 21.4939C8.57967 19.8145 15.6937 23.9288 22.7658 22.0987C23.2845 21.9645 23.6484 21.4986 23.6484 20.9628V15.3651" stroke="currentColor" stroke-width="0.8" stroke-miterlimit="10" stroke-linecap="round" stroke-linejoin="round"/>
<path d="M2.22656 15.7709V17.5646C3.19425 17.5646 3.99052 18.2977 4.09073 19.2388C4.47127 19.2173 4.85902 19.2066 5.25487 19.2066C7.65642 19.2066 10.021 19.6 12.3077 19.9805C14.5426 20.3524 16.6535 20.7036 18.7452 20.7036C19.1469 20.7036 19.5367 20.69 19.9164 20.6631C19.9049 20.5791 19.8984 20.4934 19.8984 20.4062C19.8984 19.3707 20.7379 18.5312 21.7734 18.5312V16.7653" stroke="currentColor" stroke-width="0.8" stroke-miterlimit="10" stroke-linecap="round" stroke-linejoin="round"/>
<path d="M8.36475 15.7231C8.7764 17.3472 10.2479 18.5488 12 18.5488C13.3498 18.5488 14.5324 17.8354 15.1926 16.7653" stroke="currentColor" stroke-width="0.8" stroke-miterlimit="10" stroke-linecap="round" stroke-linejoin="round"/>
<path d="M17.4604 16.9428C21 16.9428 21.4674 16.8371 22.7658 16.5011C23.2845 16.3669 23.6485 15.901 23.6485 15.3652V3.4177C23.6485 2.81203 23.0828 2.36625 22.4935 2.50622C15.4203 4.1857 8.30632 0.0712985 1.23419 1.90135C0.715474 2.03555 0.351583 2.50144 0.351583 3.03727C0.351583 7.01977 0.351536 11.0023 0.351583 14.9848C0.351583 15.5904 0.917224 16.0362 1.50654 15.8962C6.81316 14.6363 12.1428 16.6375 17.4604 16.9428Z" stroke="currentColor" stroke-width="0.8" stroke-miterlimit="10" stroke-linecap="round" stroke-linejoin="round"/>
<path d="M2.22656 7.49994V11.9669C3.19425 11.9669 3.99052 12.7 4.09073 13.6411C4.47127 13.6196 4.85902 13.6089 5.25487 13.6089C7.65642 13.6089 10.021 14.0023 12.3077 14.3828C14.5426 14.7547 16.6535 15.1059 18.7452 15.1059C19.1469 15.1059 19.5367 15.0923 19.9164 15.0654C19.9049 14.9814 19.8984 14.8958 19.8984 14.8086C19.8984 13.7731 20.7379 12.9336 21.7734 12.9336V6.43547C20.8058 6.43547 20.0095 5.70235 19.9093 4.76129C19.5287 4.78275 19.1409 4.79349 18.7451 4.79349C16.3435 4.79354 13.9789 4.40007 11.6921 4.01954C9.45727 3.64768 7.34639 3.29639 5.25473 3.29639C4.85306 3.29639 4.4632 3.30999 4.08361 3.33689C4.09514 3.42094 4.10156 3.50658 4.10156 3.59377C4.10156 4.62928 3.26208 5.46877 2.22656 5.46877L2.22656 8.01469" stroke="currentColor" stroke-width="0.8" stroke-miterlimit="10" stroke-linecap="round" stroke-linejoin="round"/>
<path d="M15.75 9.20117C15.75 11.2722 14.0711 12.9512 12 12.9512C9.92892 12.9512 8.25 11.2722 8.25 9.20117C8.25 7.13009 9.92892 5.45117 12 5.45117C14.0711 5.45117 15.75 7.13009 15.75 9.20117Z" stroke="currentColor" stroke-width="0.8" stroke-miterlimit="10" stroke-linecap="round" stroke-linejoin="round"/>
<path d="M6.64453 8.71783C6.64453 9.36504 6.11986 9.88971 5.47266 9.88971C4.82545 9.88971 4.30078 9.36504 4.30078 8.71783C4.30078 8.07063 4.82545 7.54596 5.47266 7.54596C6.11986 7.54596 6.64453 8.07063 6.64453 8.71783Z" stroke="currentColor" stroke-width="0.8" stroke-miterlimit="10" stroke-linecap="round" stroke-linejoin="round"/>
<path d="M19.6992 9.68457C19.6992 10.3318 19.1745 10.8564 18.5273 10.8564C17.8801 10.8564 17.3555 10.3318 17.3555 9.68457C17.3555 9.03737 17.8801 8.51269 18.5273 8.51269C19.1745 8.51269 19.6992 9.03737 19.6992 9.68457Z" stroke="currentColor" stroke-width="0.8" stroke-miterlimit="10" stroke-linecap="round" stroke-linejoin="round"/>
</g>
</svg>
