<svg width="24" height="21" viewBox="0 0 24 21" fill="none" xmlns="http://www.w3.org/2000/svg">
<path d="M20.4087 2.8253C20.3981 2.81048 20.3866 2.79619 20.3733 2.78292C20.3601 2.76961 20.3457 2.75803 20.3309 2.74753C18.6137 1.04991 16.2548 0 13.6551 0C11.0872 0 8.70277 1.03772 6.96403 2.75873C6.95466 2.76623 6.94556 2.77425 6.93684 2.78292C6.92855 2.79122 6.92081 2.79989 6.91359 2.80884C5.80903 3.91856 4.97105 5.30677 4.52044 6.88088C3.44934 7.55166 2.73511 8.74167 2.73511 10.096C2.73511 11.5617 3.57164 12.8348 4.79175 13.4656C2.03241 14.2273 0 16.7594 0 19.7576C0 19.9388 0.146906 20.0857 0.328125 20.0857H12.7249C12.9061 20.0857 13.053 19.9388 13.053 19.7576C13.053 16.7595 11.0207 14.2274 8.26139 13.4656C9.48159 12.8348 10.3181 11.5617 10.3181 10.096C10.3181 9.30047 10.0713 8.56172 9.651 7.95131C10.2881 6.30408 11.8766 5.2087 13.6551 5.2087C14.0537 5.2087 14.4451 5.26298 14.8233 5.36981L13.2412 8.39288C12.7384 8.52262 12.3154 8.88422 12.1137 9.36773C11.7592 10.2176 12.1621 11.1975 13.012 11.5521C13.2192 11.6385 13.4371 11.6818 13.655 11.6818C13.8701 11.6818 14.0853 11.6397 14.2903 11.5554C14.7029 11.3857 15.0247 11.0655 15.1964 10.6538C15.3978 10.1712 15.3577 9.61734 15.0975 9.16912L16.1495 6.00802C17.2675 6.80902 17.9475 8.11294 17.9475 9.50119C17.9475 9.68241 18.0944 9.82931 18.2756 9.82931H22.8281C23.0093 9.82931 23.1562 9.68241 23.1562 9.50119C23.1562 6.90145 22.1063 4.54256 20.4087 2.82534L20.4087 2.8253ZM9.83578 6.35334C9.82205 6.36998 9.80841 6.38672 9.79491 6.40355C9.76955 6.43514 9.74461 6.46706 9.72 6.49927C9.70655 6.51684 9.69319 6.53452 9.67997 6.55228C9.65606 6.58453 9.63262 6.61716 9.60942 6.65002C9.59644 6.66844 9.58345 6.68681 9.5707 6.70542C9.54811 6.73842 9.52603 6.77189 9.50423 6.8055C9.49181 6.82458 9.47934 6.84361 9.46716 6.86292C9.44578 6.89681 9.42506 6.93122 9.40448 6.96572C9.39277 6.98536 9.38091 7.00486 9.36947 7.02464C9.34917 7.05975 9.32962 7.09538 9.31017 7.13105C9.29939 7.15083 9.28837 7.17042 9.27783 7.19034C9.25837 7.22719 9.23977 7.26455 9.22125 7.302C9.21164 7.32141 9.2017 7.34058 9.19233 7.36013C9.18764 7.36988 9.18295 7.37963 9.17831 7.38942C8.49408 6.71892 7.55803 6.30445 6.52664 6.30445C6.10964 6.30445 5.70863 6.37313 5.33306 6.49805C5.33475 6.49331 5.33634 6.48853 5.33808 6.48384C5.3497 6.45173 5.36184 6.41986 5.37384 6.38794C5.38308 6.36333 5.39213 6.33862 5.40159 6.31416C5.41369 6.28284 5.4262 6.25181 5.43863 6.22069C5.44856 6.19584 5.45831 6.17091 5.46844 6.1462C5.48105 6.11545 5.49408 6.08494 5.50702 6.05438C5.51747 6.02967 5.52778 6.00492 5.53842 5.98036C5.55155 5.95012 5.56509 5.92013 5.5785 5.89003C5.58956 5.86533 5.60048 5.84058 5.61173 5.81602C5.62533 5.78639 5.6393 5.75695 5.65317 5.72752C5.6648 5.70295 5.67628 5.6783 5.68809 5.65387C5.70225 5.62458 5.71673 5.59556 5.73122 5.56645C5.74331 5.54213 5.75536 5.51775 5.76764 5.49361C5.78227 5.46483 5.79727 5.43623 5.81222 5.40764C5.82487 5.38345 5.83748 5.35927 5.85033 5.33522C5.86542 5.30695 5.88084 5.27892 5.89622 5.25089C5.90944 5.22684 5.92261 5.20275 5.93602 5.17884C5.95162 5.15105 5.96747 5.12344 5.98336 5.09588C5.99705 5.07211 6.01073 5.0483 6.02466 5.02467C6.04073 4.9973 6.05709 4.97011 6.07345 4.94292C6.08766 4.91939 6.10186 4.89581 6.1163 4.87242C6.1328 4.84561 6.14953 4.81894 6.16631 4.79231C6.18112 4.76883 6.19594 4.74539 6.21094 4.72209C6.22786 4.69584 6.24492 4.66973 6.26208 4.64372C6.27741 4.62047 6.29278 4.59731 6.3083 4.5742C6.32564 4.54842 6.34317 4.52273 6.3608 4.49714C6.37664 4.47412 6.39258 4.45116 6.40861 4.42828C6.42637 4.40302 6.44423 4.37789 6.46223 4.35281C6.47859 4.32998 6.49509 4.3073 6.51169 4.28466C6.52983 4.25991 6.54806 4.23525 6.56644 4.21069C6.58336 4.18809 6.60042 4.16555 6.61753 4.14314C6.63605 4.11895 6.65461 4.09481 6.67331 4.07086C6.69075 4.0485 6.70837 4.02623 6.72605 4.00402C6.74489 3.98034 6.76378 3.95672 6.78286 3.93328C6.80091 3.91106 6.81909 3.88903 6.83737 3.867C6.8565 3.84394 6.87567 3.82092 6.89503 3.79805C6.91364 3.77606 6.93239 3.75422 6.95123 3.73247C6.97069 3.70992 6.99019 3.68742 7.00983 3.66511C7.02895 3.64341 7.04831 3.62184 7.06763 3.60033C7.08741 3.57834 7.10719 3.55631 7.12716 3.53452C7.14267 3.51759 7.15842 3.50086 7.17403 3.48408L9.93089 6.24094C9.92564 6.24689 9.92067 6.25313 9.91551 6.25912C9.88856 6.29016 9.86198 6.32156 9.83578 6.35334ZM7.75008 2.91886C7.77342 2.898 7.79695 2.87742 7.82048 2.85684C7.84083 2.83903 7.86103 2.82108 7.88152 2.80345C7.90589 2.7825 7.9305 2.76188 7.95511 2.7412C7.97522 2.72428 7.99519 2.70722 8.01544 2.69048C8.0408 2.66953 8.06644 2.64895 8.09198 2.62828C8.11181 2.61225 8.13155 2.59603 8.15147 2.58019C8.17842 2.55877 8.2057 2.53777 8.23294 2.51667C8.25183 2.50205 8.27058 2.48719 8.28956 2.4727C8.31905 2.45025 8.34886 2.42817 8.37862 2.40609C8.39573 2.39339 8.41266 2.38045 8.42986 2.36789C8.46342 2.34333 8.49731 2.31923 8.5312 2.29519C8.54494 2.28544 8.55853 2.27541 8.57231 2.26575C8.61947 2.23261 8.66695 2.19998 8.71477 2.16778C8.71542 2.16736 8.71603 2.16689 8.71669 2.16647C8.76567 2.13352 8.81498 2.10103 8.86458 2.06902C8.8695 2.06588 8.87447 2.06283 8.87939 2.05969C8.92373 2.03123 8.96827 2.00306 9.01312 1.97536C9.0263 1.96725 9.03966 1.95937 9.05287 1.95131C9.08958 1.92891 9.12633 1.90655 9.16341 1.88466C9.18019 1.87477 9.1972 1.86516 9.21408 1.85536C9.24783 1.83572 9.28158 1.81608 9.31566 1.79686C9.33422 1.78636 9.35302 1.77623 9.37167 1.76587C9.40425 1.74783 9.43678 1.72969 9.46959 1.71202C9.48947 1.70133 9.50958 1.69097 9.52955 1.68037C9.56137 1.66355 9.5932 1.64667 9.62527 1.63022C9.64617 1.61948 9.66726 1.60913 9.68822 1.59858C9.71967 1.58278 9.75108 1.56689 9.78272 1.55147C9.80423 1.54097 9.82589 1.5308 9.8475 1.52044C9.87891 1.50544 9.91026 1.49039 9.94186 1.47572C9.96398 1.46545 9.98625 1.45552 10.0085 1.44544C10.0397 1.43123 10.071 1.41708 10.1024 1.40325C10.1252 1.39322 10.1481 1.38352 10.1709 1.37367C10.2022 1.36027 10.2333 1.34686 10.2647 1.33378C10.2879 1.32413 10.3112 1.31475 10.3345 1.30528C10.3657 1.29258 10.3971 1.27988 10.4285 1.26755C10.4522 1.25827 10.476 1.24922 10.4997 1.24013C10.5309 1.22817 10.5622 1.21622 10.5936 1.20459C10.6178 1.19564 10.6422 1.18692 10.6665 1.17816C10.6977 1.16691 10.7289 1.1557 10.7602 1.14483C10.7848 1.1363 10.8095 1.12795 10.8342 1.11961C10.8655 1.10902 10.8968 1.09856 10.9283 1.08834C10.9532 1.08023 10.9782 1.07231 11.0033 1.06444C11.0347 1.05455 11.0661 1.04475 11.0977 1.03519C11.123 1.0275 11.1484 1.02 11.1738 1.01255C11.2052 1.00331 11.2367 0.994266 11.2682 0.985359C11.2939 0.978141 11.3197 0.971063 11.3456 0.964031C11.377 0.9555 11.4085 0.94711 11.4401 0.938906C11.4662 0.932156 11.4923 0.925547 11.5185 0.918984C11.55 0.911109 11.5816 0.903375 11.6132 0.895875C11.6397 0.889594 11.6661 0.883406 11.6926 0.877359C11.7242 0.870141 11.7558 0.863156 11.7874 0.856313C11.8141 0.8505 11.841 0.844828 11.8678 0.839297C11.8994 0.832735 11.9311 0.826406 11.9629 0.820219C11.9899 0.814922 12.017 0.809719 12.0441 0.804703C12.0757 0.798844 12.1074 0.793172 12.1392 0.787641C12.1666 0.782859 12.1941 0.778125 12.2215 0.773625C12.2531 0.768422 12.2848 0.7635 12.3165 0.758625C12.3443 0.754359 12.3721 0.750141 12.3999 0.746109C12.4315 0.741562 12.4632 0.737344 12.4948 0.733125C12.5229 0.729422 12.5511 0.725672 12.5792 0.722203C12.6108 0.718313 12.6424 0.714797 12.674 0.711234C12.7025 0.708047 12.731 0.704859 12.7596 0.701953C12.791 0.698766 12.8226 0.695859 12.8541 0.693C12.8829 0.690375 12.9117 0.687703 12.9405 0.685406C12.972 0.682875 13.0035 0.680672 13.035 0.678469C13.0642 0.676406 13.0934 0.674297 13.1226 0.672562C13.1538 0.670687 13.1851 0.669187 13.2165 0.667641C13.2461 0.666188 13.2757 0.664594 13.3053 0.663422C13.3125 0.663141 13.3197 0.663 13.3268 0.662766V4.56291C13.3087 4.56412 13.2906 4.56614 13.2724 4.56755C13.2623 4.56834 13.2523 4.56928 13.2421 4.57013C13.1882 4.57463 13.1346 4.57988 13.0811 4.58611C13.0699 4.58742 13.0588 4.58883 13.0476 4.59023C12.9952 4.5967 12.9431 4.60392 12.8912 4.61198C12.8795 4.61381 12.8679 4.61573 12.8562 4.61761C12.8049 4.626 12.7538 4.63514 12.7029 4.64508C12.6912 4.64738 12.6794 4.64972 12.6676 4.65211C12.6169 4.66242 12.5665 4.67353 12.5163 4.68539C12.5048 4.68811 12.4933 4.69078 12.4819 4.69355C12.4313 4.70587 12.3811 4.71905 12.3311 4.73292C12.3204 4.73592 12.3097 4.73878 12.2989 4.74183C12.2481 4.75631 12.1976 4.77169 12.1474 4.78777C12.1379 4.79081 12.1282 4.79372 12.1187 4.79686C12.067 4.81378 12.0157 4.83159 11.9647 4.85016C11.957 4.85297 11.9492 4.85559 11.9415 4.85845C11.8879 4.87823 11.8347 4.899 11.7819 4.92061C11.7771 4.92258 11.7721 4.92445 11.7673 4.92642C11.7099 4.95014 11.6529 4.9748 11.5965 5.00063L11.5964 5.00072C11.3089 5.13225 11.0353 5.29069 10.779 5.47355C10.7782 5.47406 10.7776 5.47458 10.7769 5.47509C10.7276 5.5103 10.679 5.54644 10.6311 5.58342C10.6241 5.58881 10.6173 5.59444 10.6103 5.59988C10.5688 5.63222 10.5277 5.66513 10.4872 5.69878C10.477 5.70727 10.467 5.71608 10.4569 5.72466C10.4362 5.74214 10.4154 5.75953 10.395 5.77739L7.63842 3.02081C7.65501 3.00544 7.6717 2.9902 7.68844 2.97497C7.70892 2.95631 7.72927 2.93752 7.74994 2.91905L7.75008 2.91886ZM12.3878 19.4295H0.665297C0.835922 16.3458 3.39769 13.8893 6.52294 13.8875C6.52416 13.8875 6.52537 13.8876 6.52659 13.8876C6.52781 13.8876 6.52898 13.8875 6.5302 13.8875C9.65536 13.8894 12.2171 16.3459 12.3877 19.4295H12.3878ZM6.5302 13.2312C6.52898 13.2312 6.52777 13.2312 6.52655 13.2312C6.52537 13.2312 6.5242 13.2312 6.52298 13.2312C4.79587 13.2292 3.39136 11.8236 3.39136 10.096C3.39136 8.36845 4.79784 6.96075 6.52664 6.96075C8.25544 6.96075 9.66192 8.36723 9.66192 10.096C9.66192 11.8248 8.25736 13.2292 6.5302 13.2312ZM14.4249 9.11189C14.3913 9.21286 14.4087 9.32386 14.4717 9.40969C14.6844 9.69942 14.7289 10.0701 14.5908 10.4011C14.4865 10.6511 14.2912 10.8455 14.0407 10.9485C13.7903 11.0515 13.5147 11.0508 13.2647 10.9465C12.7488 10.7312 12.5041 10.1364 12.7194 9.62048C12.8575 9.28936 13.1523 9.06023 13.5078 9.00759C13.6116 8.99222 13.7017 8.92814 13.7504 8.83514L15.5865 5.32683C15.5865 5.32683 15.5866 5.32669 15.5867 5.32659L15.8558 4.81233L15.6612 5.39733C15.6609 5.39813 15.6607 5.39892 15.6604 5.39972L14.4249 9.11194L14.4249 9.11189ZM16.7436 2.71209C16.4876 2.60531 16.1895 2.74973 16.0367 3.05147L15.133 4.7782C14.76 4.66148 14.3752 4.59009 13.9832 4.56445V0.662953C16.1748 0.743297 18.1653 1.62441 19.67 3.02227L16.9139 5.77838C16.7419 5.62734 16.5587 5.48756 16.365 5.36044L16.9974 3.46041C17.1101 3.14091 17.0015 2.81977 16.7436 2.71209ZM18.5927 9.17306C18.5196 8.08214 18.0838 7.05328 17.377 6.24328L20.1338 3.48647C21.5317 4.99116 22.4137 6.98142 22.494 9.17306H18.5927H18.5927Z" fill="currentColor"/>
</svg>
