<svg width="16" height="16" viewBox="0 0 16 16" fill="none" xmlns="http://www.w3.org/2000/svg">
<path d="M5.40291 11.0821C5.40291 10.5628 5.46764 10.0881 5.59709 9.65786C5.72654 9.22763 5.93689 8.83449 6.22816 8.47844C6.51942 8.10756 6.91586 7.78118 7.41748 7.4993C7.69256 7.35095 8.01618 7.18776 8.38835 7.00974C8.76052 6.81688 9.11651 6.59434 9.45631 6.34214C9.79612 6.08994 10.0793 5.79323 10.3058 5.45202C10.5485 5.1108 10.6699 4.71025 10.6699 4.25035C10.6699 3.76078 10.5405 3.3528 10.2816 3.02643C10.0227 2.68521 9.69094 2.43301 9.28641 2.26982C8.89806 2.09179 8.46926 2.00278 8 2.00278C7.49838 2.00278 7.03722 2.09921 6.61651 2.29207C6.19579 2.48493 5.83172 2.72972 5.52427 3.02643C5.21683 3.32313 4.95793 3.63468 4.74757 3.96106L3 2.87065C3.29126 2.2624 3.69579 1.74316 4.21359 1.31293C4.73139 0.882708 5.32201 0.556329 5.98544 0.333797C6.64887 0.111266 7.34466 0 8.07282 0C8.67152 0 9.26214 0.0890127 9.84466 0.267038C10.4434 0.430227 10.9773 0.689847 11.4466 1.0459C11.9159 1.40195 12.288 1.85443 12.5631 2.40334C12.8544 2.93741 13 3.58275 13 4.33936C13 4.8586 12.9272 5.31108 12.7816 5.6968C12.6521 6.06769 12.4579 6.40148 12.199 6.69819C11.9401 6.9949 11.6408 7.26194 11.301 7.4993C10.9612 7.72184 10.589 7.93695 10.1845 8.14465C9.77994 8.36718 9.3835 8.59713 8.99515 8.83449C8.6068 9.05702 8.28317 9.3389 8.02427 9.68011C7.76537 10.0213 7.63592 10.4886 7.63592 11.0821H5.40291ZM5.47573 16V13.1961H7.68447V16H5.47573Z" fill="currentColor"/>
</svg>
