<svg width="24" height="24" viewBox="0 0 24 24" fill="none" xmlns="http://www.w3.org/2000/svg">
<path d="M3.77151 17.0167C1.68871 17.69 0.400024 18.6209 0.400024 19.6493C0.400024 20.3739 1.04048 21.0499 2.14706 21.6218L4.05102 20.7438L3.43757 22.169C5.53617 22.9066 8.54343 23.3688 11.8844 23.3688C18.2271 23.3688 23.3688 21.7035 23.3688 19.6493C23.3688 18.6209 22.0801 17.69 19.9973 17.0167" stroke="currentColor" stroke-width="0.8" stroke-miterlimit="10" stroke-linejoin="round"/>
<path d="M11.8844 2.06896V0.400024" stroke="currentColor" stroke-width="0.8" stroke-miterlimit="10" stroke-linecap="round" stroke-linejoin="round"/>
<path d="M6.76666 3.02013L5.93219 1.57483" stroke="currentColor" stroke-width="0.8" stroke-miterlimit="10" stroke-linecap="round" stroke-linejoin="round"/>
<path d="M17.0022 3.02013L17.8367 1.57483" stroke="currentColor" stroke-width="0.8" stroke-miterlimit="10" stroke-linecap="round" stroke-linejoin="round"/>
<path d="M9.41064 7.81381C8.38469 6.78767 7.14658 5.9396 5.72528 5.34467C5.11863 6.79385 4.83189 8.29685 4.83203 9.77538" stroke="currentColor" stroke-width="0.8" stroke-miterlimit="10" stroke-linejoin="round"/>
<path d="M18.9368 9.77532C18.9369 8.29679 18.6501 6.79379 18.0435 5.3446C16.6222 5.93959 15.3841 6.78765 14.3582 7.81374" stroke="currentColor" stroke-width="0.8" stroke-miterlimit="10" stroke-linejoin="round"/>
<path d="M15.2481 12.2521C15.2481 9.31303 14.1268 6.37392 11.8844 4.13147C9.64194 6.37392 8.52069 9.31303 8.52069 12.2521" stroke="currentColor" stroke-width="0.8" stroke-miterlimit="10" stroke-linejoin="round"/>
<path d="M0.400024 8.88843C0.400024 15.2311 5.54174 20.3728 11.8844 20.3728C11.8844 14.0301 6.74268 8.88843 0.400024 8.88843Z" stroke="currentColor" stroke-width="0.8" stroke-miterlimit="10" stroke-linejoin="round"/>
<path d="M23.3688 8.88843C23.3688 15.2311 18.2271 20.3728 11.8844 20.3728C11.8844 14.0301 17.0261 8.88843 23.3688 8.88843Z" stroke="currentColor" stroke-width="0.8" stroke-miterlimit="10" stroke-linejoin="round"/>
</svg>
