<svg width="24" height="24" viewBox="0 0 24 24" fill="none" xmlns="http://www.w3.org/2000/svg">
<g clip-path="url(#clip0_1_306)">
<path d="M23.5477 17.3441L21.8586 9.96914C21.7101 9.32063 21.0618 8.91356 20.413 9.0623L19.0555 9.37322C18.407 9.52177 18.0002 10.1703 18.1487 10.8188L18.2066 11.0714L17.5838 11.3424C17.1267 11.5412 16.6484 11.514 16.2005 11.2639C15.7884 11.0336 15.423 10.8193 15.1006 10.6301C13.6302 9.76748 12.8203 9.29217 11.6228 9.74002C11.2761 9.86963 10.9276 10.1312 10.5663 10.4775H5.8793C5.84799 9.95653 5.47824 9.49547 4.94443 9.37317L3.58693 9.06225C2.93841 8.91366 2.28989 9.32053 2.14135 9.96909L0.452301 17.3441C0.380582 17.6573 0.435613 17.9805 0.607222 18.2541C0.778879 18.5277 1.04588 18.7179 1.3591 18.7897L2.7166 19.1006C2.80627 19.1211 2.89669 19.1312 2.9866 19.1312C3.21075 19.1312 3.43135 19.0681 3.62663 18.9457C3.90024 18.774 4.09046 18.507 4.16218 18.1937L4.16644 18.1751L9.19491 23.1473C9.47269 23.4251 9.84324 23.5781 10.2383 23.5781H10.2386C10.6337 23.578 11.0043 23.425 11.2822 23.1472C11.4912 22.9381 11.6296 22.6765 11.6853 22.3914L12.342 23.0482C12.6198 23.3261 12.9904 23.4791 13.3855 23.479H13.3857C13.7808 23.479 14.1515 23.3259 14.4293 23.0481C14.6383 22.8391 14.7767 22.5775 14.8324 22.2925L14.8795 22.3396C15.1573 22.6175 15.5278 22.7704 15.923 22.7704H15.9232C16.3183 22.7704 16.6889 22.6173 16.9668 22.3395C17.2446 22.0617 17.3976 21.6911 17.3976 21.296C17.3976 21.1995 17.3885 21.1044 17.3707 21.0119C17.3841 21.0122 17.3975 21.0124 17.411 21.0124H17.4113C17.8064 21.0123 18.177 20.8593 18.4548 20.5815C18.7326 20.3037 18.8856 19.9331 18.8857 19.538C18.8857 19.3775 18.86 19.2212 18.8115 19.0733L19.9855 18.5552C20.0815 18.7115 20.2129 18.8451 20.3734 18.9457C20.5687 19.0681 20.7892 19.1312 21.0134 19.1312C21.1033 19.1312 21.1938 19.1211 21.2834 19.1006L22.6409 18.7897C22.9541 18.7179 23.2211 18.5277 23.3928 18.2541C23.5644 17.9805 23.6195 17.6572 23.5477 17.3441ZM3.52247 18.0472C3.48989 18.1896 3.40303 18.3113 3.27788 18.3897C3.15272 18.4682 3.00544 18.4935 2.86308 18.4609L1.50558 18.15C1.36322 18.1174 1.24163 18.0305 1.16311 17.9054C1.0846 17.7803 1.05933 17.633 1.09191 17.4906L2.7811 10.1156C2.83946 9.86095 3.06675 9.68803 3.31758 9.68803C3.35813 9.68803 3.39933 9.69258 3.44049 9.702L4.79794 10.0129C5.09377 10.0807 5.27935 10.3765 5.21157 10.6723L3.52247 18.0472ZM17.9908 20.1174C17.8369 20.2713 17.6311 20.3561 17.4112 20.3561C17.4111 20.3561 17.4111 20.3561 17.411 20.3561C17.1912 20.3561 16.9854 20.2714 16.8316 20.1175L13.5835 16.8693C13.4555 16.7412 13.2477 16.7412 13.1195 16.8692C12.9914 16.9973 12.9914 17.2051 13.1195 17.3333C13.1195 17.3333 16.4882 20.7018 16.5027 20.7164C16.6566 20.8702 16.7414 21.076 16.7413 21.2959C16.7413 21.5157 16.6566 21.7215 16.5027 21.8753C16.3487 22.0293 16.1429 22.1141 15.923 22.1141C15.923 22.1141 15.9229 22.1141 15.9229 22.1141C15.7031 22.1141 15.4973 22.0294 15.3435 21.8755L11.8494 18.3813C11.7214 18.2532 11.5136 18.2532 11.3854 18.3812C11.2573 18.5094 11.2573 18.7171 11.3854 18.8453L13.9783 21.4383C14.1239 21.5906 14.2039 21.7909 14.2038 22.0044C14.2038 22.2243 14.119 22.4301 13.9652 22.584C13.8113 22.7378 13.6054 22.8227 13.3855 22.8227C13.3855 22.8227 13.3855 22.8227 13.3854 22.8227C13.1656 22.8227 12.9599 22.7379 12.806 22.5841L9.96872 19.7467C9.84061 19.6186 9.63282 19.6186 9.50471 19.7467C9.37655 19.8748 9.37655 20.0826 9.50471 20.2107L10.8272 21.5333C10.9753 21.6861 11.0567 21.888 11.0567 22.1035C11.0567 22.3234 10.9719 22.5292 10.8181 22.683C10.6641 22.8369 10.4583 22.9217 10.2384 22.9218C10.2383 22.9218 10.2383 22.9218 10.2383 22.9218C10.0185 22.9218 9.81272 22.837 9.65757 22.6819L4.33875 17.4226L5.77908 11.1338H9.9428C9.71316 11.3925 9.47658 11.6726 9.23063 11.9639C8.56571 12.7513 7.87819 13.5654 7.13007 14.1928C6.99155 14.309 6.97304 14.5153 7.08872 14.6542C7.77057 15.4732 8.57208 15.8141 9.47072 15.6684C10.2558 15.5408 11.0321 15.0606 11.7541 14.5606C12.3938 14.1177 13.2249 14.1925 13.7752 14.7428L17.9908 18.9584C18.1447 19.1123 18.2294 19.3181 18.2294 19.538C18.2295 19.7577 18.1447 19.9635 17.9908 20.1174ZM18.4549 18.4943L14.2393 14.2786C13.4734 13.5128 12.2712 13.4044 11.3806 14.021C9.85913 15.0746 8.81129 15.466 7.80914 14.4711C8.50336 13.8424 9.15216 13.074 9.7321 12.3872C10.5188 11.4556 11.2619 10.5757 11.8527 10.3547C12.7576 10.0164 13.3463 10.3617 14.7686 11.1962C15.0938 11.3869 15.4623 11.6032 15.8805 11.8368C16.505 12.1856 17.2029 12.2237 17.8456 11.9442L18.3557 11.7223L19.7774 17.9297L18.4677 18.5077C18.4634 18.5033 18.4592 18.4987 18.4549 18.4943ZM22.8368 17.9053C22.7584 18.0305 22.6367 18.1173 22.4944 18.15L21.1369 18.4609C20.9946 18.4935 20.8472 18.4682 20.7221 18.3897C20.597 18.3112 20.5101 18.1896 20.4775 18.0472L18.7884 10.6723C18.7207 10.3764 18.9062 10.0807 19.2021 10.0129L20.5595 9.702C20.8553 9.63436 21.1512 9.81989 21.2189 10.1156L22.908 17.4906C22.9406 17.6329 22.9154 17.7803 22.8368 17.9053ZM10.2508 7.15711C10.667 7.53309 11.0974 7.92178 11.5282 8.34084C11.5919 8.40277 11.6745 8.43375 11.757 8.43375C11.8395 8.43375 11.9221 8.40277 11.9857 8.34084C12.4165 7.92183 12.8469 7.53309 13.2631 7.15711C14.8475 5.72602 16.2158 4.49006 16.2158 2.75878C16.2158 1.47019 15.1421 0.421875 13.8223 0.421875C12.8076 0.421875 12.2217 0.874687 11.757 1.59516C11.2923 0.874687 10.7063 0.421875 9.69164 0.421875C8.37188 0.421875 7.29816 1.47019 7.29816 2.75878C7.29821 4.49002 8.66649 5.72597 10.2508 7.15711ZM9.69164 1.07812C10.507 1.07812 10.9546 1.41333 11.4652 2.40656C11.5214 2.51592 11.6341 2.58469 11.757 2.58469C11.88 2.58469 11.9926 2.51592 12.0488 2.40656C12.5594 1.41333 13.0069 1.07812 13.8223 1.07812C14.7803 1.07812 15.5596 1.83206 15.5596 2.75878C15.5596 4.1985 14.352 5.28919 12.8233 6.67013C12.4757 6.984 12.1185 7.30669 11.757 7.65047C11.3954 7.30669 11.0382 6.984 10.6906 6.67013C9.16191 5.28923 7.95436 4.19845 7.95436 2.75878C7.95446 1.83206 8.73375 1.07812 9.69164 1.07812Z" fill="currentColor"/>
</g>
<defs>
<clipPath id="clip0_1_306">
<rect width="24" height="24" fill="white"/>
</clipPath>
</defs>
</svg>
