<svg width="20" height="23" viewBox="0 0 20 23" fill="none" xmlns="http://www.w3.org/2000/svg">
<path d="M9.00043 4.5C9.88885 4.5 11.2504 3.492 11.2504 2.25C11.2504 1.00928 10.2411 0 9.00043 0C7.7597 0 6.75043 1.00928 6.75043 2.25C6.75043 3.492 8.112 4.5 9.00043 4.5ZM9.00043 0.75C9.8277 0.75 10.5004 1.42291 10.5004 2.25C10.5004 3.05566 9.49445 3.75 9.00043 3.75C8.50641 3.75 7.50043 3.05566 7.50043 2.25C7.50043 1.42291 8.17316 0.75 9.00043 0.75Z" fill="currentColor"/>
<path d="M19.009 15.7764C15.8065 12.7229 15.0052 6.0247 14.9975 5.95732C14.9967 5.95013 14.9922 5.94453 14.991 5.9375L17.472 3.45464C17.8126 3.10948 18.0001 2.65776 18.0001 2.18242C18.0001 1.70012 17.8118 1.24638 17.4702 0.904892C16.7674 0.201767 15.6223 0.201218 14.9188 0.904709L10.5696 5.24998H6.28498C5.74628 5.24998 5.24567 5.51677 4.94684 5.96245L2.64447 9.36931C2.20172 9.93657 2.12445 10.6584 2.43793 11.2998C2.49966 11.4263 2.57757 11.5403 2.66285 11.6474C1.98419 13.4197 1.12873 14.8107 0.116152 15.7764C0.0278953 15.8606 -0.0138527 15.9825 0.00409166 16.1034C0.0224022 16.2239 0.0982079 16.3282 0.207339 16.3832C1.63446 17.0976 3.20331 17.2522 4.29535 17.2522C4.68363 17.2522 5.0102 17.2326 5.25006 17.2118V21.1161C5.25006 21.8793 5.87079 22.5 6.63398 22.5H6.90021C7.51398 22.5 8.06037 22.0873 8.22809 21.4969L9.51276 17.0076L10.4246 18.3754L9.46332 19.8201C9.30731 20.0467 9.22492 20.3137 9.22492 20.5913C9.22492 20.8912 9.32086 21.1776 9.50214 21.4193C9.74347 21.7419 10.1122 21.943 10.5143 21.9708C10.9168 21.9964 11.3057 21.8518 11.5866 21.5687L13.5015 19.6538C13.997 19.1631 14.1754 18.4435 13.9673 17.7773L13.791 17.2039C14.0356 17.2275 14.3922 17.2522 14.8298 17.2522C15.9218 17.2522 17.491 17.0973 18.9178 16.3832C19.0273 16.3282 19.1027 16.2239 19.121 16.1034C19.139 15.9825 19.0972 15.8606 19.009 15.7764ZM15.449 1.43517C15.8599 1.02409 16.529 1.02428 16.9399 1.43535C17.1398 1.63512 17.2501 1.90044 17.2501 2.18242C17.2501 2.45927 17.1391 2.72386 16.9399 2.92601L12.7501 7.11913V6.37498C12.7501 6.29762 12.7422 6.22205 12.7272 6.14903C12.7195 6.11111 12.7048 6.07607 12.6933 6.03963C12.6827 6.00587 12.6755 5.97064 12.6618 5.93835C12.6451 5.89889 12.622 5.8633 12.6011 5.82629C12.5864 5.80029 12.575 5.77229 12.5584 5.74762C12.535 5.71297 12.506 5.68289 12.479 5.65112C12.4594 5.62803 12.4426 5.60255 12.4213 5.58113C12.3941 5.55385 12.3622 5.53176 12.3324 5.50736C12.3065 5.48621 12.2828 5.46241 12.2551 5.44357C12.2255 5.42348 12.1921 5.40906 12.1606 5.39178C12.1286 5.37424 12.0983 5.35397 12.0645 5.33955C12.0332 5.32625 11.9992 5.31913 11.9666 5.30865C11.9291 5.29661 11.8929 5.28171 11.8539 5.27361C11.8211 5.26683 11.7864 5.26676 11.7528 5.26289C11.7122 5.25822 11.6726 5.25019 11.6309 5.24998L15.449 1.43517ZM3.25055 9.81004L5.56867 6.38139C5.72907 6.14262 5.99677 5.99998 6.28498 5.99998H10.7249H11.6251C11.832 5.99998 12.0001 6.16826 12.0001 6.37498V8.02495V13.5H6.00006V12.375H6.91889C7.77912 12.375 8.5456 11.8172 8.78217 11.0193L8.95465 10.4379C9.05426 10.1015 8.99054 9.74651 8.7796 9.46379C8.55951 9.16899 8.21894 8.99998 7.84503 8.99998H5.62506C5.41779 8.99998 5.25006 9.16789 5.25006 9.37498C5.25006 9.58208 5.41779 9.74998 5.62506 9.74998H7.84503C7.9798 9.74998 8.10138 9.80913 8.17829 9.91222C8.21857 9.96587 8.27899 10.0777 8.23542 10.2244L8.06293 10.806C7.92011 11.2883 7.44953 11.625 6.91889 11.625H5.62506H4.19245C3.72296 11.625 3.30878 11.3743 3.11176 10.9707C2.92719 10.5928 2.9737 10.1667 3.25055 9.81004ZM1.01886 15.9258C1.90047 14.9641 2.65498 13.6947 3.27202 12.1485C3.5486 12.2924 3.86114 12.375 4.19245 12.375H5.25006V13.875V16.4571C4.53359 16.5232 2.70689 16.6018 1.01886 15.9258ZM12.9724 19.1224L11.0552 21.0395C10.9271 21.1684 10.7538 21.238 10.5663 21.2226C10.3821 21.2098 10.2133 21.1179 10.1024 20.97C10.0189 20.8586 9.97492 20.7275 9.97492 20.5913C9.97492 20.466 10.0119 20.3463 10.0848 20.2401L11.1874 18.5826C11.2709 18.4566 11.2709 18.293 11.1871 18.167L9.68708 15.917C9.60614 15.7954 9.46259 15.732 9.3172 15.7544C9.17292 15.7771 9.05463 15.8815 9.01471 16.0217L7.50702 21.2911C7.42902 21.5654 7.18512 21.75 6.90021 21.75H6.63398C6.28461 21.75 6.00006 21.4654 6.00006 21.1161V14.25H12.098L13.251 17.9993C13.3756 18.3984 13.2694 18.8284 12.9724 19.1224ZM13.5579 16.4212C13.5554 16.4209 13.553 16.422 13.5505 16.4216L12.7501 13.8184V8.18013L14.3296 6.5994C14.5829 8.24573 15.5226 13.101 18.1063 15.9258C15.9665 16.7809 13.5836 16.4253 13.5579 16.4212Z" fill="currentColor"/>
</svg>
