<svg width="24" height="24" viewBox="0 0 24 24" fill="none" xmlns="http://www.w3.org/2000/svg">
<path d="M21.4003 9.98071H18.826V5.32269C18.826 3.84961 17.6276 2.651 16.1543 2.651H3.42188C1.94861 2.651 0.75 3.84961 0.75 5.32269V14.3317C0.75 15.8049 1.94861 17.0034 3.42188 17.0034H4.69977V19.5734C4.69977 19.7186 4.78363 19.8508 4.9151 19.9127C4.966 19.9367 5.02057 19.9484 5.07477 19.9484C5.16046 19.9484 5.24524 19.9191 5.3139 19.8624L8.76819 17.0034H11.3815V17.6072C11.3815 18.6271 12.2111 19.4568 13.231 19.4568H17.9242L20.0995 21.2626C20.1682 21.3195 20.2531 21.349 20.339 21.349C20.3932 21.349 20.4476 21.3373 20.4983 21.3135C20.6299 21.2516 20.714 21.1194 20.714 20.974V19.4568H21.4003C22.4202 19.4568 23.25 18.6271 23.25 17.6072V11.8303C23.25 10.8104 22.4202 9.98071 21.4003 9.98071ZM11.7565 16.2534H8.63306C8.54572 16.2534 8.46112 16.2838 8.39392 16.3394L5.44977 18.7762V16.6284C5.44977 16.4213 5.28186 16.2534 5.07477 16.2534H3.42188C2.36206 16.2534 1.5 15.3913 1.5 14.3317V5.32269C1.5 4.26306 2.36206 3.401 3.42188 3.401H16.1543C17.2139 3.401 18.076 4.26306 18.076 5.32269V14.3317C18.076 15.3913 17.2139 16.2534 16.1543 16.2534H11.7565ZM22.5 17.6072C22.5 18.2135 22.0067 18.7068 21.4003 18.7068H20.339C20.1319 18.7068 19.964 18.8747 19.964 19.0818V20.1753L18.299 18.7932C18.2316 18.7374 18.147 18.7068 18.0595 18.7068H13.231C12.6248 18.7068 12.1315 18.2135 12.1315 17.6072V17.0034H16.1543C16.3385 17.0034 16.5183 16.9846 16.6921 16.949C17.9084 16.6994 18.826 15.6208 18.826 14.3317V10.7307H21.4003C22.0067 10.7307 22.5 11.224 22.5 11.8303V17.6072Z" fill="currentColor"/>
<path d="M6.02439 10.3545C6.31579 10.3545 6.55202 10.1183 6.55202 9.82688C6.55202 9.53548 6.31579 9.29926 6.02439 9.29926C5.73299 9.29926 5.49677 9.53548 5.49677 9.82688C5.49677 10.1183 5.73299 10.3545 6.02439 10.3545Z" fill="currentColor"/>
<path d="M9.78861 10.3545C10.08 10.3545 10.3162 10.1183 10.3162 9.82688C10.3162 9.53548 10.08 9.29926 9.78861 9.29926C9.49721 9.29926 9.26099 9.53548 9.26099 9.82688C9.26099 10.1183 9.49721 10.3545 9.78861 10.3545Z" fill="currentColor"/>
<path d="M13.5529 10.3545C13.8443 10.3545 14.0805 10.1183 14.0805 9.82688C14.0805 9.53548 13.8443 9.29926 13.5529 9.29926C13.2615 9.29926 13.0253 9.53548 13.0253 9.82688C13.0253 10.1183 13.2615 10.3545 13.5529 10.3545Z" fill="currentColor"/>
</svg>
