<svg width="24" height="24" viewBox="0 0 24 24" fill="none" xmlns="http://www.w3.org/2000/svg">
<path d="M0.820418 24C0.665551 23.9995 0.521781 23.92 0.43905 23.7891C0.356572 23.6582 0.346483 23.4943 0.412819 23.3543L5.24449 13.2498H0.451409C0.296542 13.2498 0.15252 13.1703 0.0697889 13.0394C-0.0129418 12.9083 -0.0227786 12.7441 0.0438095 12.6041L5.9308 0.258281C6.00546 0.100639 6.16411 0 6.33866 0H13.4028C13.562 0 13.7095 0.0837396 13.791 0.220447C13.8727 0.357154 13.8762 0.526904 13.8006 0.66689L8.85942 9.81519H13.4643C13.6454 9.81494 13.8094 9.92264 13.8808 10.0894C13.9521 10.2561 13.9168 10.449 13.7915 10.5799L1.14731 23.8597C1.06205 23.9493 0.94401 24 0.820418 24ZM1.16799 12.3458H5.96158C6.11644 12.3463 6.26046 12.4257 6.3432 12.5567C6.42567 12.6876 6.43576 12.8515 6.36943 12.9915L2.45712 21.1733L12.41 10.7192H8.10122C7.94207 10.7192 7.79451 10.6354 7.71304 10.4987C7.63132 10.362 7.62779 10.1923 7.70346 10.0523L12.6451 0.904993H6.62292L1.16799 12.3458ZM14.4067 22.8029C14.252 22.8024 14.108 22.7229 14.0255 22.592C13.9428 22.4611 13.933 22.2972 13.9991 22.1572L16.9864 15.9093H14.1711C14.0142 15.9095 13.8684 15.8285 13.7859 15.6951C13.7035 15.5617 13.6959 15.3952 13.766 15.255L17.7265 7.33857C17.8029 7.18546 17.9595 7.08886 18.1306 7.08886H22.6606C22.8217 7.08886 22.9705 7.17437 23.0515 7.31359C23.1325 7.45282 23.1332 7.62459 23.0535 7.76433L19.8533 13.3827H22.5138C22.6946 13.3824 22.8581 13.4901 22.9292 13.6564C23.0006 13.8226 22.966 14.0153 22.8412 14.1464L14.733 22.6627C14.6478 22.7519 14.5297 22.8026 14.4064 22.8029H14.4067ZM14.9018 15.0053H17.7033C17.8579 15.0058 18.0019 15.0852 18.0846 15.2161C18.1671 15.347 18.1772 15.511 18.1109 15.651L16.0434 19.9762L21.4605 14.2867H19.0756C18.9147 14.2867 18.7657 14.2009 18.6849 14.0617C18.604 13.9225 18.6032 13.7507 18.6829 13.611L21.8829 7.9931H18.4098L14.9018 15.0053Z" fill="currentColor"/>
</svg>
