<svg width="24" height="24" viewBox="0 0 24 24" fill="none" xmlns="http://www.w3.org/2000/svg">
<path d="M15.6287 15.078C15.6287 15.078 17.8099 15.078 18.1258 15.078C21.0214 15.078 23.3688 12.7311 23.3688 9.83615C23.3688 6.94115 21.0214 4.59431 18.1258 4.59431C17.5203 4.59431 16.9389 4.69729 16.3978 4.88606C15.6558 2.29584 13.2696 0.400024 10.4405 0.400024C7.67516 0.400024 5.33329 2.21123 4.53609 4.71173C2.17213 5.21981 0.400024 7.32088 0.400024 9.83615C0.400024 12.7311 2.74738 15.078 5.64299 15.078C6.11188 15.078 5.56771 15.078 6.71652 15.078" stroke="currentColor" stroke-width="0.8" stroke-miterlimit="10" stroke-linecap="round" stroke-linejoin="round"/>
<path d="M17.976 4.60486C16.7392 4.60486 15.8896 5.04267 14.9987 5.77326" stroke="currentColor" stroke-width="0.8" stroke-miterlimit="10" stroke-linecap="round" stroke-linejoin="round"/>
<path d="M9.50491 8.80164H14.2937L11.911 13.5104H16.7851L9.5133 23.3684L11.4345 16.6352H6.02472L9.50491 8.80164Z" stroke="currentColor" stroke-width="0.8" stroke-miterlimit="10" stroke-linecap="round" stroke-linejoin="round"/>
</svg>
